<mxfile host="app.diagrams.net" agent="Mozilla/5.0 (Windows NT 10.0; Win64; x64) AppleWebKit/537.36 (KHTML, like Gecko) Chrome/128.0.0.0 YaBrowser/24.10.0.0 Safari/537.36" version="25.0.0">
  <diagram name="Страница — 1" id="pX8OwwmpMmxYCCg92kmS">
    <mxGraphModel dx="9340" dy="4160" grid="1" gridSize="10" guides="1" tooltips="1" connect="1" arrows="1" fold="1" page="1" pageScale="1" pageWidth="827" pageHeight="1169" math="0" shadow="0">
      <root>
        <mxCell id="0" />
        <mxCell id="1" parent="0" />
        <mxCell id="anHl6WbOX5LBprr3oGt9-1" value="Старт" style="rounded=0;whiteSpace=wrap;html=1;fillColor=#d5e8d4;strokeColor=#82b366;" vertex="1" parent="1">
          <mxGeometry x="320" y="140" width="120" height="60" as="geometry" />
        </mxCell>
        <mxCell id="anHl6WbOX5LBprr3oGt9-2" value="Мои Группы" style="rounded=0;whiteSpace=wrap;html=1;fillColor=#dae8fc;strokeColor=#6c8ebf;" vertex="1" parent="1">
          <mxGeometry x="-410" y="360" width="120" height="60" as="geometry" />
        </mxCell>
        <mxCell id="anHl6WbOX5LBprr3oGt9-3" value="Создать группу" style="rounded=0;whiteSpace=wrap;html=1;fillColor=#dae8fc;strokeColor=#6c8ebf;" vertex="1" parent="1">
          <mxGeometry x="630" y="360" width="120" height="60" as="geometry" />
        </mxCell>
        <mxCell id="anHl6WbOX5LBprr3oGt9-4" value="Присоединиться к группе" style="rounded=0;whiteSpace=wrap;html=1;fillColor=#dae8fc;strokeColor=#6c8ebf;" vertex="1" parent="1">
          <mxGeometry x="1020" y="360" width="120" height="60" as="geometry" />
        </mxCell>
        <mxCell id="anHl6WbOX5LBprr3oGt9-5" value="Регистрация пользователя" style="rounded=0;whiteSpace=wrap;html=1;fillColor=#e1d5e7;strokeColor=#9673a6;" vertex="1" parent="1">
          <mxGeometry x="320" y="240" width="120" height="60" as="geometry" />
        </mxCell>
        <mxCell id="anHl6WbOX5LBprr3oGt9-7" value="" style="endArrow=classic;html=1;rounded=0;exitX=0.5;exitY=1;exitDx=0;exitDy=0;" edge="1" parent="1" source="anHl6WbOX5LBprr3oGt9-1">
          <mxGeometry width="50" height="50" relative="1" as="geometry">
            <mxPoint x="330" y="390" as="sourcePoint" />
            <mxPoint x="380" y="240" as="targetPoint" />
          </mxGeometry>
        </mxCell>
        <mxCell id="anHl6WbOX5LBprr3oGt9-8" value="" style="endArrow=none;html=1;rounded=0;entryX=0.5;entryY=1;entryDx=0;entryDy=0;" edge="1" parent="1" target="anHl6WbOX5LBprr3oGt9-5">
          <mxGeometry width="50" height="50" relative="1" as="geometry">
            <mxPoint x="380" y="320" as="sourcePoint" />
            <mxPoint x="380" y="340" as="targetPoint" />
          </mxGeometry>
        </mxCell>
        <mxCell id="anHl6WbOX5LBprr3oGt9-9" value="" style="endArrow=none;html=1;rounded=0;" edge="1" parent="1">
          <mxGeometry width="50" height="50" relative="1" as="geometry">
            <mxPoint x="-350" y="320" as="sourcePoint" />
            <mxPoint x="1080" y="320" as="targetPoint" />
          </mxGeometry>
        </mxCell>
        <mxCell id="anHl6WbOX5LBprr3oGt9-15" value="" style="endArrow=none;html=1;rounded=0;exitX=0.5;exitY=0;exitDx=0;exitDy=0;" edge="1" parent="1" source="anHl6WbOX5LBprr3oGt9-2">
          <mxGeometry width="50" height="50" relative="1" as="geometry">
            <mxPoint y="390" as="sourcePoint" />
            <mxPoint x="-350" y="320" as="targetPoint" />
          </mxGeometry>
        </mxCell>
        <mxCell id="anHl6WbOX5LBprr3oGt9-16" value="" style="endArrow=none;html=1;rounded=0;exitX=0.5;exitY=0;exitDx=0;exitDy=0;" edge="1" parent="1" source="anHl6WbOX5LBprr3oGt9-3">
          <mxGeometry width="50" height="50" relative="1" as="geometry">
            <mxPoint x="640" y="390" as="sourcePoint" />
            <mxPoint x="690" y="320" as="targetPoint" />
          </mxGeometry>
        </mxCell>
        <mxCell id="anHl6WbOX5LBprr3oGt9-17" value="" style="endArrow=none;html=1;rounded=0;exitX=0.5;exitY=0;exitDx=0;exitDy=0;" edge="1" parent="1" source="anHl6WbOX5LBprr3oGt9-4">
          <mxGeometry width="50" height="50" relative="1" as="geometry">
            <mxPoint x="630" y="390" as="sourcePoint" />
            <mxPoint x="1080" y="320" as="targetPoint" />
          </mxGeometry>
        </mxCell>
        <mxCell id="anHl6WbOX5LBprr3oGt9-19" value="&lt;font style=&quot;font-size: 16px;&quot;&gt;USERS&lt;/font&gt;&lt;br&gt;&lt;div&gt;&lt;ul&gt;&lt;li style=&quot;text-align: left;&quot;&gt;&lt;font style=&quot;font-size: 9px;&quot;&gt;ID пользователя&lt;/font&gt;&lt;/li&gt;&lt;li style=&quot;text-align: left;&quot;&gt;&lt;font style=&quot;font-size: 9px;&quot;&gt;ID групп&lt;/font&gt;&lt;/li&gt;&lt;li style=&quot;text-align: left;&quot;&gt;&lt;font style=&quot;font-size: 9px;&quot;&gt;Статус пользователя&lt;/font&gt;&lt;/li&gt;&lt;/ul&gt;&lt;/div&gt;" style="shape=cylinder3;whiteSpace=wrap;html=1;boundedLbl=1;backgroundOutline=1;size=15;fillColor=#f8cecc;strokeColor=#b85450;" vertex="1" parent="1">
          <mxGeometry x="230" y="360" width="130" height="160" as="geometry" />
        </mxCell>
        <mxCell id="anHl6WbOX5LBprr3oGt9-20" value="&lt;font style=&quot;font-size: 16px;&quot;&gt;Groups&lt;/font&gt;&lt;div&gt;&lt;ul&gt;&lt;li&gt;&lt;font style=&quot;font-size: 9px;&quot;&gt;ID группы&lt;/font&gt;&lt;/li&gt;&lt;li&gt;&lt;font style=&quot;font-size: 9px;&quot;&gt;Название группы&lt;/font&gt;&lt;/li&gt;&lt;li&gt;&lt;font style=&quot;font-size: 9px;&quot;&gt;Ключ группы&lt;/font&gt;&lt;/li&gt;&lt;li&gt;&lt;font style=&quot;font-size: 9px;&quot;&gt;Дз группы&lt;/font&gt;&lt;/li&gt;&lt;li&gt;&lt;font style=&quot;font-size: 9px;&quot;&gt;Пользователи группы&lt;/font&gt;&lt;/li&gt;&lt;li&gt;&lt;font style=&quot;font-size: 9px;&quot;&gt;админы группы&lt;/font&gt;&lt;/li&gt;&lt;/ul&gt;&lt;/div&gt;" style="shape=cylinder3;whiteSpace=wrap;html=1;boundedLbl=1;backgroundOutline=1;size=15;fillColor=#fff2cc;strokeColor=#d6b656;" vertex="1" parent="1">
          <mxGeometry x="230" y="570" width="140" height="160" as="geometry" />
        </mxCell>
        <mxCell id="anHl6WbOX5LBprr3oGt9-21" value="&lt;font style=&quot;font-size: 16px;&quot;&gt;Proposals&lt;/font&gt;&lt;div&gt;&lt;ul&gt;&lt;li&gt;&lt;font style=&quot;font-size: 9px;&quot;&gt;ID запроса&lt;/font&gt;&lt;/li&gt;&lt;li&gt;&lt;font style=&quot;font-size: 9px;&quot;&gt;ID группы&lt;/font&gt;&lt;/li&gt;&lt;li&gt;&lt;font style=&quot;font-size: 9px;&quot;&gt;ID пользователя&lt;/font&gt;&lt;/li&gt;&lt;li&gt;&lt;font style=&quot;font-size: 9px;&quot;&gt;ДЗ&lt;/font&gt;&lt;/li&gt;&lt;li&gt;&lt;font style=&quot;font-size: 9px;&quot;&gt;время запроса&lt;/font&gt;&lt;/li&gt;&lt;/ul&gt;&lt;/div&gt;" style="shape=cylinder3;whiteSpace=wrap;html=1;boundedLbl=1;backgroundOutline=1;size=15;fillColor=#f5f5f5;fontColor=#333333;strokeColor=#666666;" vertex="1" parent="1">
          <mxGeometry x="230" y="790" width="140" height="170" as="geometry" />
        </mxCell>
        <mxCell id="anHl6WbOX5LBprr3oGt9-23" value="Проверка количества групп" style="rounded=0;whiteSpace=wrap;html=1;fillColor=#e1d5e7;strokeColor=#9673a6;" vertex="1" parent="1">
          <mxGeometry x="630" y="470" width="120" height="60" as="geometry" />
        </mxCell>
        <mxCell id="anHl6WbOX5LBprr3oGt9-24" value="Ввод названия группы" style="rounded=0;whiteSpace=wrap;html=1;fillColor=#ffe6cc;strokeColor=#d79b00;" vertex="1" parent="1">
          <mxGeometry x="630" y="580" width="120" height="60" as="geometry" />
        </mxCell>
        <mxCell id="anHl6WbOX5LBprr3oGt9-26" value="Регистрация группы, создание уникального ключа" style="rounded=0;whiteSpace=wrap;html=1;fillColor=#e1d5e7;strokeColor=#9673a6;" vertex="1" parent="1">
          <mxGeometry x="630" y="690" width="120" height="60" as="geometry" />
        </mxCell>
        <mxCell id="anHl6WbOX5LBprr3oGt9-27" value="" style="endArrow=none;html=1;rounded=0;entryX=0.5;entryY=1;entryDx=0;entryDy=0;exitX=0.5;exitY=0;exitDx=0;exitDy=0;" edge="1" parent="1" source="anHl6WbOX5LBprr3oGt9-23" target="anHl6WbOX5LBprr3oGt9-3">
          <mxGeometry width="50" height="50" relative="1" as="geometry">
            <mxPoint x="710" y="600" as="sourcePoint" />
            <mxPoint x="760" y="550" as="targetPoint" />
          </mxGeometry>
        </mxCell>
        <mxCell id="anHl6WbOX5LBprr3oGt9-28" value="" style="endArrow=none;html=1;rounded=0;entryX=0.5;entryY=1;entryDx=0;entryDy=0;" edge="1" parent="1" source="anHl6WbOX5LBprr3oGt9-24" target="anHl6WbOX5LBprr3oGt9-23">
          <mxGeometry width="50" height="50" relative="1" as="geometry">
            <mxPoint x="710" y="600" as="sourcePoint" />
            <mxPoint x="760" y="550" as="targetPoint" />
          </mxGeometry>
        </mxCell>
        <mxCell id="anHl6WbOX5LBprr3oGt9-29" value="" style="endArrow=none;html=1;rounded=0;entryX=0.5;entryY=1;entryDx=0;entryDy=0;exitX=0.5;exitY=0;exitDx=0;exitDy=0;" edge="1" parent="1" source="anHl6WbOX5LBprr3oGt9-26" target="anHl6WbOX5LBprr3oGt9-24">
          <mxGeometry width="50" height="50" relative="1" as="geometry">
            <mxPoint x="710" y="600" as="sourcePoint" />
            <mxPoint x="760" y="550" as="targetPoint" />
          </mxGeometry>
        </mxCell>
        <mxCell id="anHl6WbOX5LBprr3oGt9-31" value="" style="curved=1;endArrow=classic;html=1;rounded=0;exitX=0;exitY=0.5;exitDx=0;exitDy=0;entryX=1;entryY=0.5;entryDx=0;entryDy=0;entryPerimeter=0;fillColor=#f8cecc;strokeColor=#b85450;" edge="1" parent="1" source="anHl6WbOX5LBprr3oGt9-23" target="anHl6WbOX5LBprr3oGt9-19">
          <mxGeometry width="50" height="50" relative="1" as="geometry">
            <mxPoint x="570" y="630" as="sourcePoint" />
            <mxPoint x="620" y="580" as="targetPoint" />
            <Array as="points">
              <mxPoint x="560" y="410" />
              <mxPoint x="570" y="580" />
            </Array>
          </mxGeometry>
        </mxCell>
        <mxCell id="anHl6WbOX5LBprr3oGt9-32" value="" style="curved=1;endArrow=classic;html=1;rounded=0;exitX=0;exitY=0.5;exitDx=0;exitDy=0;entryX=1;entryY=0.5;entryDx=0;entryDy=0;entryPerimeter=0;fillColor=#f8cecc;strokeColor=#b85450;" edge="1" parent="1" source="anHl6WbOX5LBprr3oGt9-26" target="anHl6WbOX5LBprr3oGt9-19">
          <mxGeometry width="50" height="50" relative="1" as="geometry">
            <mxPoint x="580" y="670" as="sourcePoint" />
            <mxPoint x="630" y="620" as="targetPoint" />
            <Array as="points">
              <mxPoint x="540" y="680" />
              <mxPoint x="580" y="620" />
            </Array>
          </mxGeometry>
        </mxCell>
        <mxCell id="anHl6WbOX5LBprr3oGt9-33" value="" style="curved=1;endArrow=classic;html=1;rounded=0;exitX=0;exitY=0.5;exitDx=0;exitDy=0;entryX=1;entryY=0.5;entryDx=0;entryDy=0;entryPerimeter=0;fillColor=#fff2cc;strokeColor=#d6b656;" edge="1" parent="1" source="anHl6WbOX5LBprr3oGt9-26" target="anHl6WbOX5LBprr3oGt9-20">
          <mxGeometry width="50" height="50" relative="1" as="geometry">
            <mxPoint x="580" y="670" as="sourcePoint" />
            <mxPoint x="630" y="620" as="targetPoint" />
            <Array as="points">
              <mxPoint x="600" y="750" />
              <mxPoint x="470" y="700" />
            </Array>
          </mxGeometry>
        </mxCell>
        <mxCell id="anHl6WbOX5LBprr3oGt9-34" value="Проверка корректности ключа" style="rounded=0;whiteSpace=wrap;html=1;fillColor=#e1d5e7;strokeColor=#9673a6;" vertex="1" parent="1">
          <mxGeometry x="1020" y="580" width="120" height="60" as="geometry" />
        </mxCell>
        <mxCell id="anHl6WbOX5LBprr3oGt9-35" value="Ввод ключа группы" style="rounded=0;whiteSpace=wrap;html=1;fillColor=#ffe6cc;strokeColor=#d79b00;" vertex="1" parent="1">
          <mxGeometry x="1020" y="470" width="120" height="60" as="geometry" />
        </mxCell>
        <mxCell id="anHl6WbOX5LBprr3oGt9-36" value="Добавление в группу" style="rounded=0;whiteSpace=wrap;html=1;fillColor=#e1d5e7;strokeColor=#9673a6;" vertex="1" parent="1">
          <mxGeometry x="1020" y="690" width="120" height="60" as="geometry" />
        </mxCell>
        <mxCell id="anHl6WbOX5LBprr3oGt9-37" value="" style="endArrow=none;html=1;rounded=0;entryX=0.5;entryY=1;entryDx=0;entryDy=0;exitX=0.5;exitY=0;exitDx=0;exitDy=0;" edge="1" parent="1" source="anHl6WbOX5LBprr3oGt9-35" target="anHl6WbOX5LBprr3oGt9-4">
          <mxGeometry width="50" height="50" relative="1" as="geometry">
            <mxPoint x="930" y="580" as="sourcePoint" />
            <mxPoint x="980" y="530" as="targetPoint" />
          </mxGeometry>
        </mxCell>
        <mxCell id="anHl6WbOX5LBprr3oGt9-39" value="" style="endArrow=none;html=1;rounded=0;entryX=0.5;entryY=1;entryDx=0;entryDy=0;" edge="1" parent="1" source="anHl6WbOX5LBprr3oGt9-34" target="anHl6WbOX5LBprr3oGt9-35">
          <mxGeometry width="50" height="50" relative="1" as="geometry">
            <mxPoint x="930" y="580" as="sourcePoint" />
            <mxPoint x="980" y="530" as="targetPoint" />
          </mxGeometry>
        </mxCell>
        <mxCell id="anHl6WbOX5LBprr3oGt9-40" value="" style="endArrow=none;html=1;rounded=0;entryX=0.5;entryY=1;entryDx=0;entryDy=0;exitX=0.5;exitY=0;exitDx=0;exitDy=0;" edge="1" parent="1" source="anHl6WbOX5LBprr3oGt9-36" target="anHl6WbOX5LBprr3oGt9-34">
          <mxGeometry width="50" height="50" relative="1" as="geometry">
            <mxPoint x="930" y="580" as="sourcePoint" />
            <mxPoint x="980" y="530" as="targetPoint" />
          </mxGeometry>
        </mxCell>
        <mxCell id="anHl6WbOX5LBprr3oGt9-41" value="" style="curved=1;endArrow=classic;html=1;rounded=0;exitX=0;exitY=0.5;exitDx=0;exitDy=0;entryX=1;entryY=0.5;entryDx=0;entryDy=0;entryPerimeter=0;fillColor=#ffe6cc;strokeColor=#d79b00;" edge="1" parent="1" source="anHl6WbOX5LBprr3oGt9-34" target="anHl6WbOX5LBprr3oGt9-20">
          <mxGeometry width="50" height="50" relative="1" as="geometry">
            <mxPoint x="640" y="600" as="sourcePoint" />
            <mxPoint x="690" y="550" as="targetPoint" />
            <Array as="points">
              <mxPoint x="920" y="590" />
              <mxPoint x="890" y="660" />
              <mxPoint x="890" y="830" />
              <mxPoint x="850" y="890" />
              <mxPoint x="490" y="830" />
            </Array>
          </mxGeometry>
        </mxCell>
        <mxCell id="anHl6WbOX5LBprr3oGt9-44" value="" style="curved=1;endArrow=classic;html=1;rounded=0;exitX=0;exitY=0.5;exitDx=0;exitDy=0;entryX=1;entryY=0.5;entryDx=0;entryDy=0;entryPerimeter=0;fillColor=#fff2cc;strokeColor=#d6b656;" edge="1" parent="1" source="anHl6WbOX5LBprr3oGt9-36" target="anHl6WbOX5LBprr3oGt9-20">
          <mxGeometry width="50" height="50" relative="1" as="geometry">
            <mxPoint x="520" y="650" as="sourcePoint" />
            <mxPoint x="570" y="600" as="targetPoint" />
            <Array as="points">
              <mxPoint x="820" y="870" />
              <mxPoint x="540" y="790" />
            </Array>
          </mxGeometry>
        </mxCell>
        <mxCell id="anHl6WbOX5LBprr3oGt9-51" value="Вывод меню&amp;nbsp; со всеми группами" style="rounded=0;whiteSpace=wrap;html=1;fillColor=#e1d5e7;strokeColor=#9673a6;" vertex="1" parent="1">
          <mxGeometry x="-410" y="470" width="120" height="60" as="geometry" />
        </mxCell>
        <mxCell id="anHl6WbOX5LBprr3oGt9-52" value="" style="endArrow=none;html=1;rounded=0;entryX=0.5;entryY=1;entryDx=0;entryDy=0;exitX=0.5;exitY=0;exitDx=0;exitDy=0;" edge="1" parent="1" source="anHl6WbOX5LBprr3oGt9-51" target="anHl6WbOX5LBprr3oGt9-2">
          <mxGeometry width="50" height="50" relative="1" as="geometry">
            <mxPoint x="-200" y="520" as="sourcePoint" />
            <mxPoint x="-150" y="470" as="targetPoint" />
          </mxGeometry>
        </mxCell>
        <mxCell id="anHl6WbOX5LBprr3oGt9-53" value="Определение статуса пользователя в группе" style="rounded=0;whiteSpace=wrap;html=1;fillColor=#e1d5e7;strokeColor=#9673a6;" vertex="1" parent="1">
          <mxGeometry x="-410" y="580" width="120" height="60" as="geometry" />
        </mxCell>
        <mxCell id="anHl6WbOX5LBprr3oGt9-54" value="" style="endArrow=none;html=1;rounded=0;entryX=0.5;entryY=1;entryDx=0;entryDy=0;exitX=0.5;exitY=0;exitDx=0;exitDy=0;" edge="1" parent="1" source="anHl6WbOX5LBprr3oGt9-53" target="anHl6WbOX5LBprr3oGt9-51">
          <mxGeometry width="50" height="50" relative="1" as="geometry">
            <mxPoint x="-230" y="640" as="sourcePoint" />
            <mxPoint x="-180" y="590" as="targetPoint" />
          </mxGeometry>
        </mxCell>
        <mxCell id="anHl6WbOX5LBprr3oGt9-56" value="Админ" style="rounded=0;whiteSpace=wrap;html=1;" vertex="1" parent="1">
          <mxGeometry x="-2340" y="710" width="120" height="60" as="geometry" />
        </mxCell>
        <mxCell id="anHl6WbOX5LBprr3oGt9-59" value="Создатель" style="rounded=0;whiteSpace=wrap;html=1;" vertex="1" parent="1">
          <mxGeometry x="-1220" y="710" width="120" height="60" as="geometry" />
        </mxCell>
        <mxCell id="anHl6WbOX5LBprr3oGt9-61" value="" style="endArrow=none;dashed=1;html=1;rounded=0;entryX=0.5;entryY=1;entryDx=0;entryDy=0;" edge="1" parent="1" target="anHl6WbOX5LBprr3oGt9-53">
          <mxGeometry width="50" height="50" relative="1" as="geometry">
            <mxPoint x="-350" y="680" as="sourcePoint" />
            <mxPoint x="-200" y="720" as="targetPoint" />
          </mxGeometry>
        </mxCell>
        <mxCell id="anHl6WbOX5LBprr3oGt9-64" value="" style="endArrow=none;dashed=1;html=1;rounded=0;" edge="1" parent="1">
          <mxGeometry width="50" height="50" relative="1" as="geometry">
            <mxPoint x="-2790" y="680" as="sourcePoint" />
            <mxPoint x="-350" y="680" as="targetPoint" />
          </mxGeometry>
        </mxCell>
        <mxCell id="anHl6WbOX5LBprr3oGt9-65" value="" style="endArrow=none;dashed=1;html=1;rounded=0;exitX=0.5;exitY=0;exitDx=0;exitDy=0;" edge="1" parent="1" source="anHl6WbOX5LBprr3oGt9-56">
          <mxGeometry width="50" height="50" relative="1" as="geometry">
            <mxPoint x="-1870" y="770" as="sourcePoint" />
            <mxPoint x="-2280" y="680" as="targetPoint" />
          </mxGeometry>
        </mxCell>
        <mxCell id="anHl6WbOX5LBprr3oGt9-66" value="" style="endArrow=none;dashed=1;html=1;rounded=0;exitX=0.5;exitY=0;exitDx=0;exitDy=0;" edge="1" parent="1" source="anHl6WbOX5LBprr3oGt9-59">
          <mxGeometry width="50" height="50" relative="1" as="geometry">
            <mxPoint x="-1060" y="770" as="sourcePoint" />
            <mxPoint x="-1160" y="680" as="targetPoint" />
          </mxGeometry>
        </mxCell>
        <mxCell id="anHl6WbOX5LBprr3oGt9-69" value="Общая информация о группе" style="rounded=0;whiteSpace=wrap;html=1;fillColor=#b0e3e6;strokeColor=#0e8088;" vertex="1" parent="1">
          <mxGeometry x="-1580" y="840" width="120" height="60" as="geometry" />
        </mxCell>
        <mxCell id="anHl6WbOX5LBprr3oGt9-70" value="Меню управления предметами" style="rounded=0;whiteSpace=wrap;html=1;fillColor=#b0e3e6;strokeColor=#0e8088;" vertex="1" parent="1">
          <mxGeometry x="-860" y="840" width="124" height="60" as="geometry" />
        </mxCell>
        <mxCell id="anHl6WbOX5LBprr3oGt9-73" value="" style="endArrow=none;html=1;rounded=0;entryX=0.5;entryY=1;entryDx=0;entryDy=0;" edge="1" parent="1" target="anHl6WbOX5LBprr3oGt9-59">
          <mxGeometry width="50" height="50" relative="1" as="geometry">
            <mxPoint x="-1160" y="800" as="sourcePoint" />
            <mxPoint x="-1160" y="890" as="targetPoint" />
          </mxGeometry>
        </mxCell>
        <mxCell id="anHl6WbOX5LBprr3oGt9-74" value="" style="endArrow=none;html=1;rounded=0;" edge="1" parent="1">
          <mxGeometry width="50" height="50" relative="1" as="geometry">
            <mxPoint x="-1520" y="800" as="sourcePoint" />
            <mxPoint x="-160" y="800" as="targetPoint" />
          </mxGeometry>
        </mxCell>
        <mxCell id="anHl6WbOX5LBprr3oGt9-75" value="" style="endArrow=none;html=1;rounded=0;exitX=0.5;exitY=0;exitDx=0;exitDy=0;" edge="1" parent="1" source="anHl6WbOX5LBprr3oGt9-69">
          <mxGeometry width="50" height="50" relative="1" as="geometry">
            <mxPoint x="-1470" y="940" as="sourcePoint" />
            <mxPoint x="-1520" y="800" as="targetPoint" />
          </mxGeometry>
        </mxCell>
        <mxCell id="anHl6WbOX5LBprr3oGt9-77" value="" style="endArrow=none;html=1;rounded=0;exitX=0.5;exitY=0;exitDx=0;exitDy=0;" edge="1" parent="1" source="anHl6WbOX5LBprr3oGt9-70">
          <mxGeometry width="50" height="50" relative="1" as="geometry">
            <mxPoint x="-950" y="940" as="sourcePoint" />
            <mxPoint x="-800" y="800" as="targetPoint" />
          </mxGeometry>
        </mxCell>
        <mxCell id="anHl6WbOX5LBprr3oGt9-78" value="Название группы" style="rounded=0;whiteSpace=wrap;html=1;fillColor=#b0e3e6;strokeColor=#0e8088;" vertex="1" parent="1">
          <mxGeometry x="-2210" y="940" width="120" height="60" as="geometry" />
        </mxCell>
        <mxCell id="anHl6WbOX5LBprr3oGt9-79" value="Уникальный ключ группы" style="rounded=0;whiteSpace=wrap;html=1;fillColor=#b0e3e6;strokeColor=#0e8088;" vertex="1" parent="1">
          <mxGeometry x="-1950" y="940" width="120" height="60" as="geometry" />
        </mxCell>
        <mxCell id="anHl6WbOX5LBprr3oGt9-80" value="Список участников группы" style="rounded=0;whiteSpace=wrap;html=1;fillColor=#b0e3e6;strokeColor=#0e8088;" vertex="1" parent="1">
          <mxGeometry x="-1680" y="940" width="122" height="60" as="geometry" />
        </mxCell>
        <mxCell id="anHl6WbOX5LBprr3oGt9-81" value="Список администраторов группы" style="rounded=0;whiteSpace=wrap;html=1;fillColor=#b0e3e6;strokeColor=#0e8088;" vertex="1" parent="1">
          <mxGeometry x="-1430" y="940" width="120" height="60" as="geometry" />
        </mxCell>
        <mxCell id="anHl6WbOX5LBprr3oGt9-83" value="Удалить группу" style="rounded=0;whiteSpace=wrap;html=1;fillColor=#b0e3e6;strokeColor=#0e8088;" vertex="1" parent="1">
          <mxGeometry x="-220" y="820" width="120" height="67" as="geometry" />
        </mxCell>
        <mxCell id="anHl6WbOX5LBprr3oGt9-84" value="" style="endArrow=none;html=1;rounded=0;entryX=0.5;entryY=1;entryDx=0;entryDy=0;" edge="1" parent="1" target="anHl6WbOX5LBprr3oGt9-69">
          <mxGeometry width="50" height="50" relative="1" as="geometry">
            <mxPoint x="-1520" y="920" as="sourcePoint" />
            <mxPoint x="-1570" y="930" as="targetPoint" />
          </mxGeometry>
        </mxCell>
        <mxCell id="anHl6WbOX5LBprr3oGt9-85" value="" style="endArrow=none;html=1;rounded=0;" edge="1" parent="1">
          <mxGeometry width="50" height="50" relative="1" as="geometry">
            <mxPoint x="-2150" y="920" as="sourcePoint" />
            <mxPoint x="-1370" y="920" as="targetPoint" />
          </mxGeometry>
        </mxCell>
        <mxCell id="anHl6WbOX5LBprr3oGt9-86" value="" style="endArrow=none;html=1;rounded=0;exitX=0.5;exitY=0;exitDx=0;exitDy=0;" edge="1" parent="1" source="anHl6WbOX5LBprr3oGt9-78">
          <mxGeometry width="50" height="50" relative="1" as="geometry">
            <mxPoint x="-1930" y="960" as="sourcePoint" />
            <mxPoint x="-2150" y="920" as="targetPoint" />
          </mxGeometry>
        </mxCell>
        <mxCell id="anHl6WbOX5LBprr3oGt9-87" value="" style="endArrow=none;html=1;rounded=0;exitX=0.5;exitY=0;exitDx=0;exitDy=0;" edge="1" parent="1" source="anHl6WbOX5LBprr3oGt9-79">
          <mxGeometry width="50" height="50" relative="1" as="geometry">
            <mxPoint x="-1820" y="960" as="sourcePoint" />
            <mxPoint x="-1890" y="920" as="targetPoint" />
          </mxGeometry>
        </mxCell>
        <mxCell id="anHl6WbOX5LBprr3oGt9-88" value="" style="endArrow=none;html=1;rounded=0;exitX=0.5;exitY=0;exitDx=0;exitDy=0;" edge="1" parent="1" source="anHl6WbOX5LBprr3oGt9-80">
          <mxGeometry width="50" height="50" relative="1" as="geometry">
            <mxPoint x="-1610" y="950" as="sourcePoint" />
            <mxPoint x="-1620" y="920" as="targetPoint" />
          </mxGeometry>
        </mxCell>
        <mxCell id="anHl6WbOX5LBprr3oGt9-89" value="" style="endArrow=none;html=1;rounded=0;exitX=0.5;exitY=0;exitDx=0;exitDy=0;" edge="1" parent="1" source="anHl6WbOX5LBprr3oGt9-81">
          <mxGeometry width="50" height="50" relative="1" as="geometry">
            <mxPoint x="-1390" y="960" as="sourcePoint" />
            <mxPoint x="-1370" y="920" as="targetPoint" />
          </mxGeometry>
        </mxCell>
        <mxCell id="anHl6WbOX5LBprr3oGt9-90" value="" style="endArrow=none;html=1;rounded=0;exitX=0.5;exitY=0;exitDx=0;exitDy=0;" edge="1" parent="1" source="anHl6WbOX5LBprr3oGt9-83">
          <mxGeometry width="50" height="50" relative="1" as="geometry">
            <mxPoint x="-130" y="820" as="sourcePoint" />
            <mxPoint x="-160" y="800" as="targetPoint" />
          </mxGeometry>
        </mxCell>
        <mxCell id="anHl6WbOX5LBprr3oGt9-91" value="" style="curved=1;endArrow=classic;html=1;rounded=0;exitX=1;exitY=0.5;exitDx=0;exitDy=0;entryX=0;entryY=0.5;entryDx=0;entryDy=0;entryPerimeter=0;fillColor=#fff2cc;strokeColor=#d6b656;" edge="1" parent="1" source="anHl6WbOX5LBprr3oGt9-69" target="anHl6WbOX5LBprr3oGt9-20">
          <mxGeometry width="50" height="50" relative="1" as="geometry">
            <mxPoint x="-660" y="700" as="sourcePoint" />
            <mxPoint x="-610" y="650" as="targetPoint" />
            <Array as="points">
              <mxPoint x="-400" y="760" />
            </Array>
          </mxGeometry>
        </mxCell>
        <mxCell id="anHl6WbOX5LBprr3oGt9-92" value="Изменить название группы" style="rounded=0;whiteSpace=wrap;html=1;fillColor=#b0e3e6;strokeColor=#0e8088;" vertex="1" parent="1">
          <mxGeometry x="-2210" y="1040" width="120" height="60" as="geometry" />
        </mxCell>
        <mxCell id="anHl6WbOX5LBprr3oGt9-93" value="Ввод нового названия" style="rounded=0;whiteSpace=wrap;html=1;fillColor=#ffe6cc;strokeColor=#d79b00;" vertex="1" parent="1">
          <mxGeometry x="-2210" y="1150" width="120" height="60" as="geometry" />
        </mxCell>
        <mxCell id="anHl6WbOX5LBprr3oGt9-94" value="Регистрация нового названия" style="rounded=0;whiteSpace=wrap;html=1;fillColor=#e1d5e7;strokeColor=#9673a6;" vertex="1" parent="1">
          <mxGeometry x="-2210" y="1260" width="120" height="60" as="geometry" />
        </mxCell>
        <mxCell id="anHl6WbOX5LBprr3oGt9-95" value="" style="endArrow=none;html=1;rounded=0;entryX=0.5;entryY=1;entryDx=0;entryDy=0;exitX=0.5;exitY=0;exitDx=0;exitDy=0;" edge="1" parent="1" source="anHl6WbOX5LBprr3oGt9-92" target="anHl6WbOX5LBprr3oGt9-78">
          <mxGeometry width="50" height="50" relative="1" as="geometry">
            <mxPoint x="-2060" y="1110" as="sourcePoint" />
            <mxPoint x="-2010" y="1060" as="targetPoint" />
          </mxGeometry>
        </mxCell>
        <mxCell id="anHl6WbOX5LBprr3oGt9-96" value="" style="endArrow=none;html=1;rounded=0;entryX=0.5;entryY=1;entryDx=0;entryDy=0;" edge="1" parent="1" source="anHl6WbOX5LBprr3oGt9-93" target="anHl6WbOX5LBprr3oGt9-92">
          <mxGeometry width="50" height="50" relative="1" as="geometry">
            <mxPoint x="-2060" y="1110" as="sourcePoint" />
            <mxPoint x="-2010" y="1060" as="targetPoint" />
          </mxGeometry>
        </mxCell>
        <mxCell id="anHl6WbOX5LBprr3oGt9-97" value="" style="endArrow=none;html=1;rounded=0;exitX=0.5;exitY=1;exitDx=0;exitDy=0;entryX=0.5;entryY=0;entryDx=0;entryDy=0;" edge="1" parent="1" source="anHl6WbOX5LBprr3oGt9-93" target="anHl6WbOX5LBprr3oGt9-94">
          <mxGeometry width="50" height="50" relative="1" as="geometry">
            <mxPoint x="-2090" y="1160" as="sourcePoint" />
            <mxPoint x="-2040" y="1110" as="targetPoint" />
          </mxGeometry>
        </mxCell>
        <mxCell id="anHl6WbOX5LBprr3oGt9-98" value="" style="curved=1;endArrow=classic;html=1;rounded=0;exitX=1;exitY=0.5;exitDx=0;exitDy=0;entryX=0;entryY=0.5;entryDx=0;entryDy=0;entryPerimeter=0;fillColor=#fff2cc;strokeColor=#d6b656;" edge="1" parent="1" source="anHl6WbOX5LBprr3oGt9-94" target="anHl6WbOX5LBprr3oGt9-20">
          <mxGeometry width="50" height="50" relative="1" as="geometry">
            <mxPoint x="-520" y="970" as="sourcePoint" />
            <mxPoint x="-470" y="920" as="targetPoint" />
            <Array as="points">
              <mxPoint x="-1240" y="1590" />
              <mxPoint x="-870" y="1990" />
              <mxPoint x="30" y="1540" />
            </Array>
          </mxGeometry>
        </mxCell>
        <mxCell id="anHl6WbOX5LBprr3oGt9-99" value="Поделиться" style="rounded=0;whiteSpace=wrap;html=1;fillColor=#b0e3e6;strokeColor=#0e8088;" vertex="1" parent="1">
          <mxGeometry x="-2030" y="1040" width="120" height="60" as="geometry" />
        </mxCell>
        <mxCell id="anHl6WbOX5LBprr3oGt9-100" value="Сгенерировать новый" style="rounded=0;whiteSpace=wrap;html=1;fillColor=#b0e3e6;strokeColor=#0e8088;" vertex="1" parent="1">
          <mxGeometry x="-1870" y="1040" width="120" height="60" as="geometry" />
        </mxCell>
        <mxCell id="anHl6WbOX5LBprr3oGt9-101" value="" style="endArrow=none;html=1;rounded=0;entryX=0.5;entryY=1;entryDx=0;entryDy=0;" edge="1" parent="1" target="anHl6WbOX5LBprr3oGt9-79">
          <mxGeometry width="50" height="50" relative="1" as="geometry">
            <mxPoint x="-1890" y="1020" as="sourcePoint" />
            <mxPoint x="-1760" y="1040" as="targetPoint" />
          </mxGeometry>
        </mxCell>
        <mxCell id="anHl6WbOX5LBprr3oGt9-102" value="" style="endArrow=none;html=1;rounded=0;" edge="1" parent="1">
          <mxGeometry width="50" height="50" relative="1" as="geometry">
            <mxPoint x="-1810" y="1020" as="sourcePoint" />
            <mxPoint x="-1970" y="1020" as="targetPoint" />
          </mxGeometry>
        </mxCell>
        <mxCell id="anHl6WbOX5LBprr3oGt9-103" value="" style="endArrow=none;html=1;rounded=0;exitX=0.5;exitY=0;exitDx=0;exitDy=0;" edge="1" parent="1">
          <mxGeometry width="50" height="50" relative="1" as="geometry">
            <mxPoint x="-1810" y="1040" as="sourcePoint" />
            <mxPoint x="-1810" y="1020" as="targetPoint" />
          </mxGeometry>
        </mxCell>
        <mxCell id="anHl6WbOX5LBprr3oGt9-104" value="" style="endArrow=none;html=1;rounded=0;exitX=0.5;exitY=0;exitDx=0;exitDy=0;" edge="1" parent="1" source="anHl6WbOX5LBprr3oGt9-99">
          <mxGeometry width="50" height="50" relative="1" as="geometry">
            <mxPoint x="-1840" y="1060" as="sourcePoint" />
            <mxPoint x="-1970" y="1020" as="targetPoint" />
          </mxGeometry>
        </mxCell>
        <mxCell id="anHl6WbOX5LBprr3oGt9-105" value="Регистрация нового ключа" style="rounded=0;whiteSpace=wrap;html=1;fillColor=#e1d5e7;strokeColor=#9673a6;" vertex="1" parent="1">
          <mxGeometry x="-1870" y="1140" width="120" height="60" as="geometry" />
        </mxCell>
        <mxCell id="anHl6WbOX5LBprr3oGt9-106" value="" style="endArrow=none;html=1;rounded=0;entryX=0.5;entryY=1;entryDx=0;entryDy=0;exitX=0.5;exitY=0;exitDx=0;exitDy=0;" edge="1" parent="1">
          <mxGeometry width="50" height="50" relative="1" as="geometry">
            <mxPoint x="-1810" y="1140" as="sourcePoint" />
            <mxPoint x="-1810" y="1100" as="targetPoint" />
          </mxGeometry>
        </mxCell>
        <mxCell id="anHl6WbOX5LBprr3oGt9-107" value="" style="curved=1;endArrow=classic;html=1;rounded=0;exitX=1;exitY=0.5;exitDx=0;exitDy=0;entryX=0;entryY=0.5;entryDx=0;entryDy=0;entryPerimeter=0;fillColor=#fff2cc;strokeColor=#d6b656;" edge="1" parent="1" source="anHl6WbOX5LBprr3oGt9-105" target="anHl6WbOX5LBprr3oGt9-20">
          <mxGeometry width="50" height="50" relative="1" as="geometry">
            <mxPoint x="-730" y="1090" as="sourcePoint" />
            <mxPoint x="-680" y="1040" as="targetPoint" />
            <Array as="points">
              <mxPoint x="-1210" y="1380" />
              <mxPoint x="-1140" y="1470" />
              <mxPoint x="-950" y="1920" />
              <mxPoint x="-110" y="1910" />
            </Array>
          </mxGeometry>
        </mxCell>
        <mxCell id="anHl6WbOX5LBprr3oGt9-108" value="Открыть список контактов для пересылки" style="rounded=0;whiteSpace=wrap;html=1;fillColor=#e1d5e7;strokeColor=#9673a6;" vertex="1" parent="1">
          <mxGeometry x="-2030" y="1140" width="120" height="60" as="geometry" />
        </mxCell>
        <mxCell id="anHl6WbOX5LBprr3oGt9-109" value="" style="endArrow=none;html=1;rounded=0;entryX=0.5;entryY=1;entryDx=0;entryDy=0;exitX=0.5;exitY=0;exitDx=0;exitDy=0;" edge="1" parent="1" source="anHl6WbOX5LBprr3oGt9-108" target="anHl6WbOX5LBprr3oGt9-99">
          <mxGeometry width="50" height="50" relative="1" as="geometry">
            <mxPoint x="-1960" y="1190" as="sourcePoint" />
            <mxPoint x="-1910" y="1140" as="targetPoint" />
          </mxGeometry>
        </mxCell>
        <mxCell id="anHl6WbOX5LBprr3oGt9-113" value="" style="endArrow=none;html=1;rounded=0;entryX=0.5;entryY=1;entryDx=0;entryDy=0;exitX=0.5;exitY=0;exitDx=0;exitDy=0;" edge="1" parent="1" source="anHl6WbOX5LBprr3oGt9-118" target="anHl6WbOX5LBprr3oGt9-80">
          <mxGeometry width="50" height="50" relative="1" as="geometry">
            <mxPoint x="-1619" y="1020" as="sourcePoint" />
            <mxPoint x="-1610" y="980" as="targetPoint" />
          </mxGeometry>
        </mxCell>
        <mxCell id="anHl6WbOX5LBprr3oGt9-118" value="Открыть список участников" style="rounded=0;whiteSpace=wrap;html=1;fillColor=#e1d5e7;strokeColor=#9673a6;" vertex="1" parent="1">
          <mxGeometry x="-1679" y="1040" width="120" height="60" as="geometry" />
        </mxCell>
        <mxCell id="anHl6WbOX5LBprr3oGt9-121" value="Удалить участника" style="rounded=0;whiteSpace=wrap;html=1;fillColor=#b0e3e6;strokeColor=#0e8088;" vertex="1" parent="1">
          <mxGeometry x="-1678" y="1140" width="120" height="60" as="geometry" />
        </mxCell>
        <mxCell id="anHl6WbOX5LBprr3oGt9-123" value="" style="endArrow=none;html=1;rounded=0;entryX=0.5;entryY=1;entryDx=0;entryDy=0;exitX=0.5;exitY=0;exitDx=0;exitDy=0;" edge="1" parent="1" source="anHl6WbOX5LBprr3oGt9-121" target="anHl6WbOX5LBprr3oGt9-118">
          <mxGeometry width="50" height="50" relative="1" as="geometry">
            <mxPoint x="-1700" y="1130" as="sourcePoint" />
            <mxPoint x="-1650" y="1080" as="targetPoint" />
          </mxGeometry>
        </mxCell>
        <mxCell id="anHl6WbOX5LBprr3oGt9-124" value="Ввод никнейма" style="rounded=0;whiteSpace=wrap;html=1;fillColor=#ffe6cc;strokeColor=#d79b00;" vertex="1" parent="1">
          <mxGeometry x="-1680" y="1250" width="120" height="60" as="geometry" />
        </mxCell>
        <mxCell id="anHl6WbOX5LBprr3oGt9-125" value="" style="endArrow=none;html=1;rounded=0;entryX=0.5;entryY=1;entryDx=0;entryDy=0;" edge="1" parent="1" source="anHl6WbOX5LBprr3oGt9-124">
          <mxGeometry width="50" height="50" relative="1" as="geometry">
            <mxPoint x="-1530" y="1210" as="sourcePoint" />
            <mxPoint x="-1620" y="1200" as="targetPoint" />
          </mxGeometry>
        </mxCell>
        <mxCell id="anHl6WbOX5LBprr3oGt9-126" value="Удалить участника" style="rounded=0;whiteSpace=wrap;html=1;fillColor=#e1d5e7;strokeColor=#9673a6;" vertex="1" parent="1">
          <mxGeometry x="-1680" y="1360" width="120" height="60" as="geometry" />
        </mxCell>
        <mxCell id="anHl6WbOX5LBprr3oGt9-127" value="" style="endArrow=none;html=1;rounded=0;entryX=0.5;entryY=1;entryDx=0;entryDy=0;" edge="1" parent="1">
          <mxGeometry width="50" height="50" relative="1" as="geometry">
            <mxPoint x="-1620.53" y="1360" as="sourcePoint" />
            <mxPoint x="-1620.53" y="1310" as="targetPoint" />
          </mxGeometry>
        </mxCell>
        <mxCell id="anHl6WbOX5LBprr3oGt9-128" value="" style="curved=1;endArrow=classic;html=1;rounded=0;entryX=0;entryY=0.5;entryDx=0;entryDy=0;entryPerimeter=0;fillColor=#fff2cc;strokeColor=#d6b656;exitX=1;exitY=0.5;exitDx=0;exitDy=0;" edge="1" parent="1" source="anHl6WbOX5LBprr3oGt9-126" target="anHl6WbOX5LBprr3oGt9-20">
          <mxGeometry width="50" height="50" relative="1" as="geometry">
            <mxPoint x="-998" y="1280" as="sourcePoint" />
            <mxPoint x="-948" y="1230" as="targetPoint" />
            <Array as="points">
              <mxPoint x="-1010" y="1480" />
              <mxPoint x="-1010" y="1890" />
              <mxPoint x="-80" y="2070" />
            </Array>
          </mxGeometry>
        </mxCell>
        <mxCell id="anHl6WbOX5LBprr3oGt9-129" value="" style="endArrow=none;html=1;rounded=0;entryX=0.5;entryY=1;entryDx=0;entryDy=0;exitX=0.5;exitY=0;exitDx=0;exitDy=0;" edge="1" parent="1" source="anHl6WbOX5LBprr3oGt9-130">
          <mxGeometry width="50" height="50" relative="1" as="geometry">
            <mxPoint x="-1370" y="1020" as="sourcePoint" />
            <mxPoint x="-1370" y="1000" as="targetPoint" />
          </mxGeometry>
        </mxCell>
        <mxCell id="anHl6WbOX5LBprr3oGt9-130" value="Открыть список администраторов" style="rounded=0;whiteSpace=wrap;html=1;fillColor=#e1d5e7;strokeColor=#9673a6;" vertex="1" parent="1">
          <mxGeometry x="-1430" y="1040" width="120" height="60" as="geometry" />
        </mxCell>
        <mxCell id="anHl6WbOX5LBprr3oGt9-132" value="Понизить администратора" style="rounded=0;whiteSpace=wrap;html=1;fillColor=#b0e3e6;strokeColor=#0e8088;" vertex="1" parent="1">
          <mxGeometry x="-1350" y="1140" width="120" height="60" as="geometry" />
        </mxCell>
        <mxCell id="anHl6WbOX5LBprr3oGt9-133" value="" style="endArrow=none;html=1;rounded=0;exitX=0.5;exitY=0;exitDx=0;exitDy=0;" edge="1" parent="1" source="anHl6WbOX5LBprr3oGt9-132">
          <mxGeometry width="50" height="50" relative="1" as="geometry">
            <mxPoint x="-1332" y="1130" as="sourcePoint" />
            <mxPoint x="-1290" y="1120" as="targetPoint" />
          </mxGeometry>
        </mxCell>
        <mxCell id="anHl6WbOX5LBprr3oGt9-134" value="Добавить администратора" style="rounded=0;whiteSpace=wrap;html=1;fillColor=#b0e3e6;strokeColor=#0e8088;" vertex="1" parent="1">
          <mxGeometry x="-1510" y="1140" width="120" height="60" as="geometry" />
        </mxCell>
        <mxCell id="anHl6WbOX5LBprr3oGt9-135" value="" style="endArrow=none;html=1;rounded=0;exitX=0.5;exitY=0;exitDx=0;exitDy=0;" edge="1" parent="1" source="anHl6WbOX5LBprr3oGt9-134">
          <mxGeometry width="50" height="50" relative="1" as="geometry">
            <mxPoint x="-1532" y="1130" as="sourcePoint" />
            <mxPoint x="-1450" y="1120" as="targetPoint" />
          </mxGeometry>
        </mxCell>
        <mxCell id="anHl6WbOX5LBprr3oGt9-136" value="" style="endArrow=none;html=1;rounded=0;entryX=0.5;entryY=1;entryDx=0;entryDy=0;" edge="1" parent="1" target="anHl6WbOX5LBprr3oGt9-130">
          <mxGeometry width="50" height="50" relative="1" as="geometry">
            <mxPoint x="-1370" y="1120" as="sourcePoint" />
            <mxPoint x="-1380" y="1130" as="targetPoint" />
          </mxGeometry>
        </mxCell>
        <mxCell id="anHl6WbOX5LBprr3oGt9-137" value="" style="endArrow=none;html=1;rounded=0;" edge="1" parent="1">
          <mxGeometry width="50" height="50" relative="1" as="geometry">
            <mxPoint x="-1290" y="1120" as="sourcePoint" />
            <mxPoint x="-1450" y="1120" as="targetPoint" />
          </mxGeometry>
        </mxCell>
        <mxCell id="anHl6WbOX5LBprr3oGt9-138" value="" style="curved=1;endArrow=classic;html=1;rounded=0;exitX=1;exitY=0.5;exitDx=0;exitDy=0;entryX=0;entryY=0.5;entryDx=0;entryDy=0;entryPerimeter=0;fillColor=#fff2cc;strokeColor=#d6b656;" edge="1" parent="1" source="anHl6WbOX5LBprr3oGt9-126" target="anHl6WbOX5LBprr3oGt9-19">
          <mxGeometry width="50" height="50" relative="1" as="geometry">
            <mxPoint x="-960" y="1250" as="sourcePoint" />
            <mxPoint x="-910" y="1200" as="targetPoint" />
            <Array as="points">
              <mxPoint x="-940" y="2050" />
              <mxPoint x="-30" y="1840" />
            </Array>
          </mxGeometry>
        </mxCell>
        <mxCell id="anHl6WbOX5LBprr3oGt9-142" value="Ввод никнейма" style="rounded=0;whiteSpace=wrap;html=1;fillColor=#ffe6cc;strokeColor=#d79b00;" vertex="1" parent="1">
          <mxGeometry x="-1510" y="1250" width="120" height="60" as="geometry" />
        </mxCell>
        <mxCell id="anHl6WbOX5LBprr3oGt9-143" value="" style="endArrow=none;html=1;rounded=0;entryX=0.5;entryY=1;entryDx=0;entryDy=0;" edge="1" parent="1" source="anHl6WbOX5LBprr3oGt9-142">
          <mxGeometry width="50" height="50" relative="1" as="geometry">
            <mxPoint x="-1360" y="1210" as="sourcePoint" />
            <mxPoint x="-1450" y="1200" as="targetPoint" />
          </mxGeometry>
        </mxCell>
        <mxCell id="anHl6WbOX5LBprr3oGt9-144" value="Добавление к администраторам" style="rounded=0;whiteSpace=wrap;html=1;fillColor=#e1d5e7;strokeColor=#9673a6;" vertex="1" parent="1">
          <mxGeometry x="-1510" y="1360" width="120" height="60" as="geometry" />
        </mxCell>
        <mxCell id="anHl6WbOX5LBprr3oGt9-145" value="" style="endArrow=none;html=1;rounded=0;entryX=0.5;entryY=1;entryDx=0;entryDy=0;" edge="1" parent="1">
          <mxGeometry width="50" height="50" relative="1" as="geometry">
            <mxPoint x="-1450.53" y="1360" as="sourcePoint" />
            <mxPoint x="-1450.53" y="1310" as="targetPoint" />
          </mxGeometry>
        </mxCell>
        <mxCell id="anHl6WbOX5LBprr3oGt9-146" value="Ввод никнейма" style="rounded=0;whiteSpace=wrap;html=1;fillColor=#ffe6cc;strokeColor=#d79b00;" vertex="1" parent="1">
          <mxGeometry x="-1347" y="1250" width="120" height="60" as="geometry" />
        </mxCell>
        <mxCell id="anHl6WbOX5LBprr3oGt9-147" value="" style="endArrow=none;html=1;rounded=0;entryX=0.5;entryY=1;entryDx=0;entryDy=0;" edge="1" parent="1" source="anHl6WbOX5LBprr3oGt9-146">
          <mxGeometry width="50" height="50" relative="1" as="geometry">
            <mxPoint x="-1197" y="1210" as="sourcePoint" />
            <mxPoint x="-1287" y="1200" as="targetPoint" />
          </mxGeometry>
        </mxCell>
        <mxCell id="anHl6WbOX5LBprr3oGt9-148" value="Понижение до участника" style="rounded=0;whiteSpace=wrap;html=1;fillColor=#e1d5e7;strokeColor=#9673a6;" vertex="1" parent="1">
          <mxGeometry x="-1347" y="1360" width="120" height="60" as="geometry" />
        </mxCell>
        <mxCell id="anHl6WbOX5LBprr3oGt9-149" value="" style="endArrow=none;html=1;rounded=0;entryX=0.5;entryY=1;entryDx=0;entryDy=0;" edge="1" parent="1">
          <mxGeometry width="50" height="50" relative="1" as="geometry">
            <mxPoint x="-1287.53" y="1360" as="sourcePoint" />
            <mxPoint x="-1287.53" y="1310" as="targetPoint" />
          </mxGeometry>
        </mxCell>
        <mxCell id="anHl6WbOX5LBprr3oGt9-153" value="Подтверждение удаления" style="rounded=0;whiteSpace=wrap;html=1;fillColor=#b0e3e6;strokeColor=#0e8088;" vertex="1" parent="1">
          <mxGeometry x="-220" y="920" width="120" height="60" as="geometry" />
        </mxCell>
        <mxCell id="anHl6WbOX5LBprr3oGt9-154" value="" style="endArrow=none;html=1;rounded=0;exitX=0.5;exitY=0;exitDx=0;exitDy=0;entryX=0.5;entryY=1;entryDx=0;entryDy=0;" edge="1" parent="1" source="anHl6WbOX5LBprr3oGt9-153" target="anHl6WbOX5LBprr3oGt9-83">
          <mxGeometry width="50" height="50" relative="1" as="geometry">
            <mxPoint x="-220" y="980" as="sourcePoint" />
            <mxPoint x="-160" y="890" as="targetPoint" />
          </mxGeometry>
        </mxCell>
        <mxCell id="anHl6WbOX5LBprr3oGt9-156" value="" style="endArrow=none;html=1;rounded=0;entryX=0.5;entryY=1;entryDx=0;entryDy=0;exitX=0.5;exitY=0;exitDx=0;exitDy=0;" edge="1" parent="1" source="anHl6WbOX5LBprr3oGt9-157">
          <mxGeometry width="50" height="50" relative="1" as="geometry">
            <mxPoint x="-160" y="1000" as="sourcePoint" />
            <mxPoint x="-160" y="980" as="targetPoint" />
          </mxGeometry>
        </mxCell>
        <mxCell id="anHl6WbOX5LBprr3oGt9-157" value="Удалить пользователя из группы" style="rounded=0;whiteSpace=wrap;html=1;fillColor=#e1d5e7;strokeColor=#9673a6;" vertex="1" parent="1">
          <mxGeometry x="-220" y="1020" width="120" height="60" as="geometry" />
        </mxCell>
        <mxCell id="anHl6WbOX5LBprr3oGt9-159" value="" style="curved=1;endArrow=classic;html=1;rounded=0;exitX=1;exitY=0.5;exitDx=0;exitDy=0;entryX=0;entryY=0.5;entryDx=0;entryDy=0;entryPerimeter=0;fillColor=#fff2cc;strokeColor=#d6b656;" edge="1" parent="1" source="anHl6WbOX5LBprr3oGt9-157" target="anHl6WbOX5LBprr3oGt9-20">
          <mxGeometry width="50" height="50" relative="1" as="geometry">
            <mxPoint x="140" y="870" as="sourcePoint" />
            <mxPoint x="190" y="820" as="targetPoint" />
            <Array as="points">
              <mxPoint x="-160" y="2130" />
              <mxPoint x="150" y="2040" />
              <mxPoint x="-140" y="1870" />
              <mxPoint x="-60" y="1100" />
              <mxPoint x="140" y="820" />
            </Array>
          </mxGeometry>
        </mxCell>
        <mxCell id="anHl6WbOX5LBprr3oGt9-160" value="" style="curved=1;endArrow=classic;html=1;rounded=0;exitX=1;exitY=0.5;exitDx=0;exitDy=0;entryX=0;entryY=0.5;entryDx=0;entryDy=0;entryPerimeter=0;fillColor=#f8cecc;strokeColor=#b85450;" edge="1" parent="1" source="anHl6WbOX5LBprr3oGt9-157" target="anHl6WbOX5LBprr3oGt9-19">
          <mxGeometry width="50" height="50" relative="1" as="geometry">
            <mxPoint x="140" y="870" as="sourcePoint" />
            <mxPoint x="190" y="820" as="targetPoint" />
            <Array as="points">
              <mxPoint x="-80" y="2100" />
              <mxPoint x="-120" y="2180" />
              <mxPoint x="530" y="2090" />
              <mxPoint x="-40" y="1160" />
              <mxPoint x="140" y="820" />
            </Array>
          </mxGeometry>
        </mxCell>
        <mxCell id="anHl6WbOX5LBprr3oGt9-165" value="Список предметов" style="rounded=0;whiteSpace=wrap;html=1;fillColor=#b0e3e6;strokeColor=#0e8088;" vertex="1" parent="1">
          <mxGeometry x="-1140" y="943.5" width="124" height="60" as="geometry" />
        </mxCell>
        <mxCell id="anHl6WbOX5LBprr3oGt9-167" value="Добавить предмет" style="rounded=0;whiteSpace=wrap;html=1;fillColor=#b0e3e6;strokeColor=#0e8088;" vertex="1" parent="1">
          <mxGeometry x="-950" y="943.5" width="124" height="60" as="geometry" />
        </mxCell>
        <mxCell id="anHl6WbOX5LBprr3oGt9-170" value="Удалить предмет" style="rounded=0;whiteSpace=wrap;html=1;fillColor=#b0e3e6;strokeColor=#0e8088;" vertex="1" parent="1">
          <mxGeometry x="-760" y="943.5" width="124" height="60" as="geometry" />
        </mxCell>
        <mxCell id="anHl6WbOX5LBprr3oGt9-171" value="Предложения пользователей" style="rounded=0;whiteSpace=wrap;html=1;fillColor=#b0e3e6;strokeColor=#0e8088;" vertex="1" parent="1">
          <mxGeometry x="-490" y="943.5" width="124" height="60" as="geometry" />
        </mxCell>
        <mxCell id="anHl6WbOX5LBprr3oGt9-173" value="" style="endArrow=none;html=1;rounded=0;entryX=0.5;entryY=1;entryDx=0;entryDy=0;" edge="1" parent="1" target="anHl6WbOX5LBprr3oGt9-70">
          <mxGeometry width="50" height="50" relative="1" as="geometry">
            <mxPoint x="-798" y="920" as="sourcePoint" />
            <mxPoint x="-880" y="980" as="targetPoint" />
          </mxGeometry>
        </mxCell>
        <mxCell id="anHl6WbOX5LBprr3oGt9-174" value="" style="endArrow=none;html=1;rounded=0;" edge="1" parent="1">
          <mxGeometry width="50" height="50" relative="1" as="geometry">
            <mxPoint x="-1080" y="920" as="sourcePoint" />
            <mxPoint x="-420" y="920" as="targetPoint" />
          </mxGeometry>
        </mxCell>
        <mxCell id="anHl6WbOX5LBprr3oGt9-175" value="" style="endArrow=none;html=1;rounded=0;exitX=0.5;exitY=0;exitDx=0;exitDy=0;" edge="1" parent="1" source="anHl6WbOX5LBprr3oGt9-165">
          <mxGeometry width="50" height="50" relative="1" as="geometry">
            <mxPoint x="-910" y="1000" as="sourcePoint" />
            <mxPoint x="-1078" y="920" as="targetPoint" />
          </mxGeometry>
        </mxCell>
        <mxCell id="anHl6WbOX5LBprr3oGt9-177" value="" style="endArrow=none;html=1;rounded=0;exitX=0.5;exitY=0;exitDx=0;exitDy=0;" edge="1" parent="1" source="anHl6WbOX5LBprr3oGt9-167">
          <mxGeometry width="50" height="50" relative="1" as="geometry">
            <mxPoint x="-810" y="960" as="sourcePoint" />
            <mxPoint x="-888" y="920" as="targetPoint" />
          </mxGeometry>
        </mxCell>
        <mxCell id="anHl6WbOX5LBprr3oGt9-178" value="" style="endArrow=none;html=1;rounded=0;exitX=0.5;exitY=0;exitDx=0;exitDy=0;" edge="1" parent="1" source="anHl6WbOX5LBprr3oGt9-170">
          <mxGeometry width="50" height="50" relative="1" as="geometry">
            <mxPoint x="-810" y="960" as="sourcePoint" />
            <mxPoint x="-698" y="920" as="targetPoint" />
          </mxGeometry>
        </mxCell>
        <mxCell id="anHl6WbOX5LBprr3oGt9-179" value="" style="endArrow=none;html=1;rounded=0;exitX=0.5;exitY=0;exitDx=0;exitDy=0;" edge="1" parent="1" source="anHl6WbOX5LBprr3oGt9-171">
          <mxGeometry width="50" height="50" relative="1" as="geometry">
            <mxPoint x="-470" y="940" as="sourcePoint" />
            <mxPoint x="-428" y="920" as="targetPoint" />
          </mxGeometry>
        </mxCell>
        <mxCell id="anHl6WbOX5LBprr3oGt9-180" value="Открыть список со всеми предметами" style="rounded=0;whiteSpace=wrap;html=1;fillColor=#e1d5e7;strokeColor=#9673a6;" vertex="1" parent="1">
          <mxGeometry x="-1136" y="1040" width="120" height="60" as="geometry" />
        </mxCell>
        <mxCell id="anHl6WbOX5LBprr3oGt9-181" value="" style="endArrow=none;html=1;rounded=0;entryX=0.5;entryY=1;entryDx=0;entryDy=0;exitX=0.5;exitY=0;exitDx=0;exitDy=0;" edge="1" parent="1" source="anHl6WbOX5LBprr3oGt9-180" target="anHl6WbOX5LBprr3oGt9-165">
          <mxGeometry width="50" height="50" relative="1" as="geometry">
            <mxPoint x="-1220" y="1020" as="sourcePoint" />
            <mxPoint x="-1170" y="970" as="targetPoint" />
          </mxGeometry>
        </mxCell>
        <mxCell id="anHl6WbOX5LBprr3oGt9-182" value="Предмет" style="rounded=0;whiteSpace=wrap;html=1;fillColor=#b0e3e6;strokeColor=#0e8088;" vertex="1" parent="1">
          <mxGeometry x="-1136" y="1140" width="120" height="60" as="geometry" />
        </mxCell>
        <mxCell id="anHl6WbOX5LBprr3oGt9-183" value="" style="endArrow=none;html=1;rounded=0;entryX=0.5;entryY=1;entryDx=0;entryDy=0;exitX=0.5;exitY=0;exitDx=0;exitDy=0;" edge="1" parent="1" source="anHl6WbOX5LBprr3oGt9-182" target="anHl6WbOX5LBprr3oGt9-180">
          <mxGeometry width="50" height="50" relative="1" as="geometry">
            <mxPoint x="-1100" y="1140" as="sourcePoint" />
            <mxPoint x="-1050" y="1090" as="targetPoint" />
          </mxGeometry>
        </mxCell>
        <mxCell id="anHl6WbOX5LBprr3oGt9-185" value="Открыть домашнее задание по предмету(по умолчанию дз нет)" style="rounded=0;whiteSpace=wrap;html=1;fillColor=#e1d5e7;strokeColor=#9673a6;" vertex="1" parent="1">
          <mxGeometry x="-1136" y="1240" width="120" height="60" as="geometry" />
        </mxCell>
        <mxCell id="anHl6WbOX5LBprr3oGt9-186" value="" style="endArrow=none;html=1;rounded=0;entryX=0.5;entryY=1;entryDx=0;entryDy=0;exitX=0.5;exitY=0;exitDx=0;exitDy=0;" edge="1" parent="1" source="anHl6WbOX5LBprr3oGt9-185" target="anHl6WbOX5LBprr3oGt9-182">
          <mxGeometry width="50" height="50" relative="1" as="geometry">
            <mxPoint x="-1220" y="1220" as="sourcePoint" />
            <mxPoint x="-1072" y="1180" as="targetPoint" />
          </mxGeometry>
        </mxCell>
        <mxCell id="anHl6WbOX5LBprr3oGt9-187" value="Изменить дз" style="rounded=0;whiteSpace=wrap;html=1;fillColor=#b0e3e6;strokeColor=#0e8088;" vertex="1" parent="1">
          <mxGeometry x="-1136" y="1360" width="120" height="60" as="geometry" />
        </mxCell>
        <mxCell id="anHl6WbOX5LBprr3oGt9-188" value="" style="endArrow=none;html=1;rounded=0;entryX=0.5;entryY=1;entryDx=0;entryDy=0;exitX=0.5;exitY=0;exitDx=0;exitDy=0;" edge="1" parent="1" source="anHl6WbOX5LBprr3oGt9-187" target="anHl6WbOX5LBprr3oGt9-185">
          <mxGeometry width="50" height="50" relative="1" as="geometry">
            <mxPoint x="-1120" y="1260" as="sourcePoint" />
            <mxPoint x="-1070" y="1210" as="targetPoint" />
          </mxGeometry>
        </mxCell>
        <mxCell id="anHl6WbOX5LBprr3oGt9-189" value="Ввод нового дз" style="rounded=0;whiteSpace=wrap;html=1;fillColor=#ffe6cc;strokeColor=#d79b00;" vertex="1" parent="1">
          <mxGeometry x="-1138" y="1470" width="120" height="60" as="geometry" />
        </mxCell>
        <mxCell id="anHl6WbOX5LBprr3oGt9-190" value="" style="endArrow=none;html=1;rounded=0;entryX=0.5;entryY=1;entryDx=0;entryDy=0;" edge="1" parent="1" source="anHl6WbOX5LBprr3oGt9-189">
          <mxGeometry width="50" height="50" relative="1" as="geometry">
            <mxPoint x="-988" y="1430" as="sourcePoint" />
            <mxPoint x="-1078" y="1420" as="targetPoint" />
          </mxGeometry>
        </mxCell>
        <mxCell id="anHl6WbOX5LBprr3oGt9-191" value="Изменение дз" style="rounded=0;whiteSpace=wrap;html=1;fillColor=#e1d5e7;strokeColor=#9673a6;" vertex="1" parent="1">
          <mxGeometry x="-1138" y="1580" width="120" height="60" as="geometry" />
        </mxCell>
        <mxCell id="anHl6WbOX5LBprr3oGt9-192" value="" style="endArrow=none;html=1;rounded=0;entryX=0.5;entryY=1;entryDx=0;entryDy=0;fillColor=#e1d5e7;strokeColor=#000000;" edge="1" parent="1" source="anHl6WbOX5LBprr3oGt9-191">
          <mxGeometry width="50" height="50" relative="1" as="geometry">
            <mxPoint x="-988" y="1540" as="sourcePoint" />
            <mxPoint x="-1078" y="1530" as="targetPoint" />
          </mxGeometry>
        </mxCell>
        <mxCell id="anHl6WbOX5LBprr3oGt9-194" value="" style="curved=1;endArrow=classic;html=1;rounded=0;exitX=1;exitY=0.5;exitDx=0;exitDy=0;entryX=0;entryY=0.5;entryDx=0;entryDy=0;entryPerimeter=0;fillColor=#fff2cc;strokeColor=#d6b656;" edge="1" parent="1" source="anHl6WbOX5LBprr3oGt9-191" target="anHl6WbOX5LBprr3oGt9-20">
          <mxGeometry width="50" height="50" relative="1" as="geometry">
            <mxPoint x="-670" y="1480" as="sourcePoint" />
            <mxPoint x="-620" y="1430" as="targetPoint" />
            <Array as="points">
              <mxPoint x="-690" y="1770" />
              <mxPoint x="-110" y="1970" />
            </Array>
          </mxGeometry>
        </mxCell>
        <mxCell id="anHl6WbOX5LBprr3oGt9-195" value="Ввод названия нового предмета" style="rounded=0;whiteSpace=wrap;html=1;fillColor=#ffe6cc;strokeColor=#d79b00;" vertex="1" parent="1">
          <mxGeometry x="-950" y="1040" width="120" height="60" as="geometry" />
        </mxCell>
        <mxCell id="anHl6WbOX5LBprr3oGt9-196" value="" style="endArrow=none;html=1;rounded=0;entryX=0.5;entryY=1;entryDx=0;entryDy=0;" edge="1" parent="1" source="anHl6WbOX5LBprr3oGt9-195">
          <mxGeometry width="50" height="50" relative="1" as="geometry">
            <mxPoint x="-800" y="1013.5" as="sourcePoint" />
            <mxPoint x="-890" y="1003.5" as="targetPoint" />
          </mxGeometry>
        </mxCell>
        <mxCell id="anHl6WbOX5LBprr3oGt9-197" value="Добавление нового прдмета" style="rounded=0;whiteSpace=wrap;html=1;fillColor=#e1d5e7;strokeColor=#9673a6;" vertex="1" parent="1">
          <mxGeometry x="-950" y="1140" width="120" height="60" as="geometry" />
        </mxCell>
        <mxCell id="anHl6WbOX5LBprr3oGt9-198" value="" style="endArrow=none;html=1;rounded=0;entryX=0.5;entryY=1;entryDx=0;entryDy=0;fillColor=#e1d5e7;strokeColor=#000000;" edge="1" parent="1" source="anHl6WbOX5LBprr3oGt9-197">
          <mxGeometry width="50" height="50" relative="1" as="geometry">
            <mxPoint x="-800" y="1110" as="sourcePoint" />
            <mxPoint x="-890" y="1100" as="targetPoint" />
          </mxGeometry>
        </mxCell>
        <mxCell id="anHl6WbOX5LBprr3oGt9-199" value="" style="curved=1;endArrow=classic;html=1;rounded=0;exitX=1;exitY=0.5;exitDx=0;exitDy=0;entryX=0.006;entryY=0.438;entryDx=0;entryDy=0;entryPerimeter=0;fillColor=#fff2cc;strokeColor=#d6b656;" edge="1" parent="1" source="anHl6WbOX5LBprr3oGt9-197" target="anHl6WbOX5LBprr3oGt9-20">
          <mxGeometry width="50" height="50" relative="1" as="geometry">
            <mxPoint x="-220" y="1060" as="sourcePoint" />
            <mxPoint x="-170" y="1010" as="targetPoint" />
            <Array as="points">
              <mxPoint x="-810" y="1840" />
              <mxPoint x="160" y="1600" />
            </Array>
          </mxGeometry>
        </mxCell>
        <mxCell id="anHl6WbOX5LBprr3oGt9-206" value="Список предметов" style="rounded=0;whiteSpace=wrap;html=1;fillColor=#b0e3e6;strokeColor=#0e8088;" vertex="1" parent="1">
          <mxGeometry x="-760" y="1040" width="124" height="60" as="geometry" />
        </mxCell>
        <mxCell id="anHl6WbOX5LBprr3oGt9-207" value="" style="endArrow=none;html=1;rounded=0;exitX=0.5;exitY=0;exitDx=0;exitDy=0;" edge="1" parent="1" source="anHl6WbOX5LBprr3oGt9-206">
          <mxGeometry width="50" height="50" relative="1" as="geometry">
            <mxPoint x="-530" y="1083.5" as="sourcePoint" />
            <mxPoint x="-698" y="1003.5" as="targetPoint" />
          </mxGeometry>
        </mxCell>
        <mxCell id="anHl6WbOX5LBprr3oGt9-208" value="Открыть список со всеми предметами" style="rounded=0;whiteSpace=wrap;html=1;fillColor=#e1d5e7;strokeColor=#9673a6;" vertex="1" parent="1">
          <mxGeometry x="-756" y="1140" width="120" height="60" as="geometry" />
        </mxCell>
        <mxCell id="anHl6WbOX5LBprr3oGt9-209" value="" style="endArrow=none;html=1;rounded=0;entryX=0.5;entryY=1;entryDx=0;entryDy=0;exitX=0.5;exitY=0;exitDx=0;exitDy=0;" edge="1" parent="1" source="anHl6WbOX5LBprr3oGt9-208" target="anHl6WbOX5LBprr3oGt9-206">
          <mxGeometry width="50" height="50" relative="1" as="geometry">
            <mxPoint x="-840" y="1103.5" as="sourcePoint" />
            <mxPoint x="-790" y="1053.5" as="targetPoint" />
          </mxGeometry>
        </mxCell>
        <mxCell id="anHl6WbOX5LBprr3oGt9-210" value="Предмет" style="rounded=0;whiteSpace=wrap;html=1;fillColor=#b0e3e6;strokeColor=#0e8088;" vertex="1" parent="1">
          <mxGeometry x="-756" y="1240" width="120" height="60" as="geometry" />
        </mxCell>
        <mxCell id="anHl6WbOX5LBprr3oGt9-211" value="" style="endArrow=none;html=1;rounded=0;entryX=0.5;entryY=1;entryDx=0;entryDy=0;exitX=0.5;exitY=0;exitDx=0;exitDy=0;" edge="1" parent="1" source="anHl6WbOX5LBprr3oGt9-210" target="anHl6WbOX5LBprr3oGt9-208">
          <mxGeometry width="50" height="50" relative="1" as="geometry">
            <mxPoint x="-720" y="1223.5" as="sourcePoint" />
            <mxPoint x="-670" y="1173.5" as="targetPoint" />
          </mxGeometry>
        </mxCell>
        <mxCell id="anHl6WbOX5LBprr3oGt9-212" value="" style="endArrow=none;html=1;rounded=0;entryX=0.5;entryY=1;entryDx=0;entryDy=0;exitX=0.5;exitY=0;exitDx=0;exitDy=0;" edge="1" parent="1" target="anHl6WbOX5LBprr3oGt9-210" source="anHl6WbOX5LBprr3oGt9-213">
          <mxGeometry width="50" height="50" relative="1" as="geometry">
            <mxPoint x="-696" y="1323.5" as="sourcePoint" />
            <mxPoint x="-692" y="1263.5" as="targetPoint" />
          </mxGeometry>
        </mxCell>
        <mxCell id="anHl6WbOX5LBprr3oGt9-213" value="удаление предмета из списка предметов" style="rounded=0;whiteSpace=wrap;html=1;fillColor=#e1d5e7;strokeColor=#9673a6;" vertex="1" parent="1">
          <mxGeometry x="-756" y="1360" width="120" height="60" as="geometry" />
        </mxCell>
        <mxCell id="anHl6WbOX5LBprr3oGt9-215" value="" style="curved=1;endArrow=classic;html=1;rounded=0;exitX=1;exitY=0.5;exitDx=0;exitDy=0;fillColor=#fff2cc;strokeColor=#d6b656;" edge="1" parent="1" source="anHl6WbOX5LBprr3oGt9-70">
          <mxGeometry width="50" height="50" relative="1" as="geometry">
            <mxPoint x="-160" y="830" as="sourcePoint" />
            <mxPoint x="230" y="660" as="targetPoint" />
            <Array as="points">
              <mxPoint x="-270" y="780" />
              <mxPoint x="-200" y="690" />
            </Array>
          </mxGeometry>
        </mxCell>
        <mxCell id="anHl6WbOX5LBprr3oGt9-216" value="" style="curved=1;endArrow=classic;html=1;rounded=0;exitX=1;exitY=0.5;exitDx=0;exitDy=0;entryX=0;entryY=0.5;entryDx=0;entryDy=0;entryPerimeter=0;fillColor=#f5f5f5;strokeColor=#666666;" edge="1" parent="1" source="anHl6WbOX5LBprr3oGt9-171" target="anHl6WbOX5LBprr3oGt9-21">
          <mxGeometry width="50" height="50" relative="1" as="geometry">
            <mxPoint x="-190" y="940" as="sourcePoint" />
            <mxPoint x="-140" y="890" as="targetPoint" />
            <Array as="points">
              <mxPoint x="-80" y="1280" />
              <mxPoint x="-100" y="950" />
            </Array>
          </mxGeometry>
        </mxCell>
        <mxCell id="anHl6WbOX5LBprr3oGt9-217" value="Открыть список с предложениями пользователей" style="rounded=0;whiteSpace=wrap;html=1;fillColor=#e1d5e7;strokeColor=#9673a6;" vertex="1" parent="1">
          <mxGeometry x="-486" y="1040" width="120" height="60" as="geometry" />
        </mxCell>
        <mxCell id="anHl6WbOX5LBprr3oGt9-219" value="" style="endArrow=none;html=1;rounded=0;entryX=0.5;entryY=1;entryDx=0;entryDy=0;exitX=0.485;exitY=0.005;exitDx=0;exitDy=0;exitPerimeter=0;" edge="1" parent="1" source="anHl6WbOX5LBprr3oGt9-217" target="anHl6WbOX5LBprr3oGt9-171">
          <mxGeometry width="50" height="50" relative="1" as="geometry">
            <mxPoint x="-430" y="1090" as="sourcePoint" />
            <mxPoint x="-380" y="1040" as="targetPoint" />
          </mxGeometry>
        </mxCell>
        <mxCell id="anHl6WbOX5LBprr3oGt9-220" value="Предложение пользователя" style="rounded=0;whiteSpace=wrap;html=1;fillColor=#b0e3e6;strokeColor=#0e8088;" vertex="1" parent="1">
          <mxGeometry x="-486" y="1140" width="120" height="60" as="geometry" />
        </mxCell>
        <mxCell id="anHl6WbOX5LBprr3oGt9-221" value="" style="endArrow=none;html=1;rounded=0;entryX=0.5;entryY=1;entryDx=0;entryDy=0;exitX=0.5;exitY=0;exitDx=0;exitDy=0;" edge="1" parent="1" source="anHl6WbOX5LBprr3oGt9-220" target="anHl6WbOX5LBprr3oGt9-217">
          <mxGeometry width="50" height="50" relative="1" as="geometry">
            <mxPoint x="-430" y="1140" as="sourcePoint" />
            <mxPoint x="-380" y="1090" as="targetPoint" />
          </mxGeometry>
        </mxCell>
        <mxCell id="anHl6WbOX5LBprr3oGt9-222" value="Принять" style="rounded=0;whiteSpace=wrap;html=1;fillColor=#b0e3e6;strokeColor=#0e8088;" vertex="1" parent="1">
          <mxGeometry x="-576" y="1240" width="120" height="60" as="geometry" />
        </mxCell>
        <mxCell id="anHl6WbOX5LBprr3oGt9-223" value="Отклонить" style="rounded=0;whiteSpace=wrap;html=1;fillColor=#b0e3e6;strokeColor=#0e8088;" vertex="1" parent="1">
          <mxGeometry x="-400" y="1240" width="120" height="60" as="geometry" />
        </mxCell>
        <mxCell id="anHl6WbOX5LBprr3oGt9-224" value="" style="endArrow=none;html=1;rounded=0;entryX=0.5;entryY=1;entryDx=0;entryDy=0;" edge="1" parent="1" target="anHl6WbOX5LBprr3oGt9-220">
          <mxGeometry width="50" height="50" relative="1" as="geometry">
            <mxPoint x="-426" y="1220" as="sourcePoint" />
            <mxPoint x="-420" y="1180" as="targetPoint" />
          </mxGeometry>
        </mxCell>
        <mxCell id="anHl6WbOX5LBprr3oGt9-225" value="" style="endArrow=none;html=1;rounded=0;" edge="1" parent="1">
          <mxGeometry width="50" height="50" relative="1" as="geometry">
            <mxPoint x="-520" y="1220" as="sourcePoint" />
            <mxPoint x="-340" y="1220" as="targetPoint" />
          </mxGeometry>
        </mxCell>
        <mxCell id="anHl6WbOX5LBprr3oGt9-226" value="" style="endArrow=none;html=1;rounded=0;exitX=0.5;exitY=0;exitDx=0;exitDy=0;" edge="1" parent="1" source="anHl6WbOX5LBprr3oGt9-222">
          <mxGeometry width="50" height="50" relative="1" as="geometry">
            <mxPoint x="-470" y="1230" as="sourcePoint" />
            <mxPoint x="-516" y="1220" as="targetPoint" />
          </mxGeometry>
        </mxCell>
        <mxCell id="anHl6WbOX5LBprr3oGt9-227" value="" style="endArrow=none;html=1;rounded=0;exitX=0.5;exitY=0;exitDx=0;exitDy=0;" edge="1" parent="1" source="anHl6WbOX5LBprr3oGt9-223">
          <mxGeometry width="50" height="50" relative="1" as="geometry">
            <mxPoint x="-470" y="1230" as="sourcePoint" />
            <mxPoint x="-340" y="1220" as="targetPoint" />
          </mxGeometry>
        </mxCell>
        <mxCell id="anHl6WbOX5LBprr3oGt9-228" value="" style="endArrow=none;html=1;rounded=0;entryX=0.5;entryY=1;entryDx=0;entryDy=0;exitX=0.5;exitY=0;exitDx=0;exitDy=0;" edge="1" parent="1" source="anHl6WbOX5LBprr3oGt9-229">
          <mxGeometry width="50" height="50" relative="1" as="geometry">
            <mxPoint x="-516" y="1323.5" as="sourcePoint" />
            <mxPoint x="-516" y="1300" as="targetPoint" />
          </mxGeometry>
        </mxCell>
        <mxCell id="anHl6WbOX5LBprr3oGt9-229" value="Изменение дз, удаление из предложений" style="rounded=0;whiteSpace=wrap;html=1;fillColor=#e1d5e7;strokeColor=#9673a6;" vertex="1" parent="1">
          <mxGeometry x="-576" y="1360" width="120" height="60" as="geometry" />
        </mxCell>
        <mxCell id="anHl6WbOX5LBprr3oGt9-230" value="" style="endArrow=none;html=1;rounded=0;entryX=0.5;entryY=1;entryDx=0;entryDy=0;exitX=0.5;exitY=0;exitDx=0;exitDy=0;" edge="1" parent="1" source="anHl6WbOX5LBprr3oGt9-231">
          <mxGeometry width="50" height="50" relative="1" as="geometry">
            <mxPoint x="-340" y="1323.5" as="sourcePoint" />
            <mxPoint x="-340" y="1300" as="targetPoint" />
          </mxGeometry>
        </mxCell>
        <mxCell id="anHl6WbOX5LBprr3oGt9-231" value="Удаление из предложений" style="rounded=0;whiteSpace=wrap;html=1;fillColor=#e1d5e7;strokeColor=#9673a6;" vertex="1" parent="1">
          <mxGeometry x="-400" y="1360" width="120" height="60" as="geometry" />
        </mxCell>
        <mxCell id="anHl6WbOX5LBprr3oGt9-233" value="" style="curved=1;endArrow=classic;html=1;rounded=0;entryX=0;entryY=0.5;entryDx=0;entryDy=0;entryPerimeter=0;fillColor=#fff2cc;strokeColor=#d6b656;exitX=1;exitY=0.5;exitDx=0;exitDy=0;" edge="1" parent="1" source="anHl6WbOX5LBprr3oGt9-231" target="anHl6WbOX5LBprr3oGt9-20">
          <mxGeometry width="50" height="50" relative="1" as="geometry">
            <mxPoint x="-276" y="1390" as="sourcePoint" />
            <mxPoint x="-50" y="1030" as="targetPoint" />
            <Array as="points">
              <mxPoint x="-230" y="1560" />
              <mxPoint x="-40" y="1620" />
            </Array>
          </mxGeometry>
        </mxCell>
        <mxCell id="anHl6WbOX5LBprr3oGt9-235" value="" style="curved=1;endArrow=classic;html=1;rounded=0;fillColor=#f5f5f5;strokeColor=#666666;exitX=1;exitY=0.5;exitDx=0;exitDy=0;" edge="1" parent="1" source="anHl6WbOX5LBprr3oGt9-231">
          <mxGeometry width="50" height="50" relative="1" as="geometry">
            <mxPoint x="-266" y="1400" as="sourcePoint" />
            <mxPoint x="230" y="880" as="targetPoint" />
            <Array as="points">
              <mxPoint x="-30" y="1650" />
              <mxPoint x="130" y="1540" />
            </Array>
          </mxGeometry>
        </mxCell>
        <mxCell id="anHl6WbOX5LBprr3oGt9-236" value="" style="endArrow=none;html=1;rounded=0;exitX=0.5;exitY=1;exitDx=0;exitDy=0;entryX=0.25;entryY=0;entryDx=0;entryDy=0;" edge="1" parent="1" target="anHl6WbOX5LBprr3oGt9-69">
          <mxGeometry width="50" height="50" relative="1" as="geometry">
            <mxPoint x="-2285" y="770" as="sourcePoint" />
            <mxPoint x="-1655" y="800" as="targetPoint" />
            <Array as="points">
              <mxPoint x="-2285" y="820" />
              <mxPoint x="-1550" y="820" />
            </Array>
          </mxGeometry>
        </mxCell>
        <mxCell id="anHl6WbOX5LBprr3oGt9-237" value="" style="endArrow=none;html=1;rounded=0;" edge="1" parent="1">
          <mxGeometry width="50" height="50" relative="1" as="geometry">
            <mxPoint x="-1550" y="820" as="sourcePoint" />
            <mxPoint x="-830" y="820" as="targetPoint" />
          </mxGeometry>
        </mxCell>
        <mxCell id="anHl6WbOX5LBprr3oGt9-238" value="" style="endArrow=none;html=1;rounded=0;exitX=0.25;exitY=0;exitDx=0;exitDy=0;" edge="1" parent="1" source="anHl6WbOX5LBprr3oGt9-70">
          <mxGeometry width="50" height="50" relative="1" as="geometry">
            <mxPoint x="-870" y="870" as="sourcePoint" />
            <mxPoint x="-830" y="820" as="targetPoint" />
          </mxGeometry>
        </mxCell>
        <mxCell id="anHl6WbOX5LBprr3oGt9-242" value="Пользователь" style="rounded=0;whiteSpace=wrap;html=1;" vertex="1" parent="1">
          <mxGeometry x="-2850" y="710" width="120" height="60" as="geometry" />
        </mxCell>
        <mxCell id="anHl6WbOX5LBprr3oGt9-243" value="" style="endArrow=none;dashed=1;html=1;rounded=0;exitX=0.5;exitY=0;exitDx=0;exitDy=0;" edge="1" parent="1" source="anHl6WbOX5LBprr3oGt9-242">
          <mxGeometry width="50" height="50" relative="1" as="geometry">
            <mxPoint x="-2380" y="770" as="sourcePoint" />
            <mxPoint x="-2790" y="680" as="targetPoint" />
          </mxGeometry>
        </mxCell>
        <mxCell id="anHl6WbOX5LBprr3oGt9-244" value="" style="endArrow=none;html=1;rounded=0;" edge="1" parent="1">
          <mxGeometry width="50" height="50" relative="1" as="geometry">
            <mxPoint x="-2400" y="820" as="sourcePoint" />
            <mxPoint x="-2280" y="820" as="targetPoint" />
          </mxGeometry>
        </mxCell>
        <mxCell id="anHl6WbOX5LBprr3oGt9-245" value="" style="endArrow=none;html=1;rounded=0;" edge="1" parent="1">
          <mxGeometry width="50" height="50" relative="1" as="geometry">
            <mxPoint x="-2400" y="840" as="sourcePoint" />
            <mxPoint x="-2400" y="820" as="targetPoint" />
          </mxGeometry>
        </mxCell>
        <mxCell id="anHl6WbOX5LBprr3oGt9-246" value="Выйти из группы" style="rounded=0;whiteSpace=wrap;html=1;fillColor=#b0e3e6;strokeColor=#0e8088;" vertex="1" parent="1">
          <mxGeometry x="-2460" y="840" width="120" height="60" as="geometry" />
        </mxCell>
        <mxCell id="anHl6WbOX5LBprr3oGt9-247" value="" style="endArrow=none;html=1;rounded=0;entryX=0.5;entryY=1;entryDx=0;entryDy=0;exitX=0.5;exitY=0;exitDx=0;exitDy=0;" edge="1" parent="1" source="anHl6WbOX5LBprr3oGt9-248">
          <mxGeometry width="50" height="50" relative="1" as="geometry">
            <mxPoint x="-2400" y="920" as="sourcePoint" />
            <mxPoint x="-2400" y="900" as="targetPoint" />
          </mxGeometry>
        </mxCell>
        <mxCell id="anHl6WbOX5LBprr3oGt9-248" value="Удалить пользователя из группы" style="rounded=0;whiteSpace=wrap;html=1;fillColor=#e1d5e7;strokeColor=#9673a6;" vertex="1" parent="1">
          <mxGeometry x="-2460" y="940" width="120" height="60" as="geometry" />
        </mxCell>
        <mxCell id="anHl6WbOX5LBprr3oGt9-249" value="" style="curved=1;endArrow=classic;html=1;rounded=0;exitX=1;exitY=0.5;exitDx=0;exitDy=0;entryX=0;entryY=0.5;entryDx=0;entryDy=0;entryPerimeter=0;fillColor=#fff2cc;strokeColor=#d6b656;" edge="1" parent="1" source="anHl6WbOX5LBprr3oGt9-248" target="anHl6WbOX5LBprr3oGt9-20">
          <mxGeometry width="50" height="50" relative="1" as="geometry">
            <mxPoint x="-2100" y="790" as="sourcePoint" />
            <mxPoint x="-2010" y="570" as="targetPoint" />
            <Array as="points">
              <mxPoint x="-2400" y="2050" />
              <mxPoint x="60" y="2270" />
              <mxPoint x="70" y="1980" />
              <mxPoint x="360" y="1360" />
              <mxPoint x="-200" y="530" />
            </Array>
          </mxGeometry>
        </mxCell>
        <mxCell id="anHl6WbOX5LBprr3oGt9-250" value="" style="curved=1;endArrow=classic;html=1;rounded=0;exitX=1;exitY=0.5;exitDx=0;exitDy=0;entryX=0;entryY=0.5;entryDx=0;entryDy=0;entryPerimeter=0;fillColor=#f8cecc;strokeColor=#b85450;" edge="1" parent="1" source="anHl6WbOX5LBprr3oGt9-248" target="anHl6WbOX5LBprr3oGt9-19">
          <mxGeometry width="50" height="50" relative="1" as="geometry">
            <mxPoint x="-2100" y="790" as="sourcePoint" />
            <mxPoint x="-2010" y="360" as="targetPoint" />
            <Array as="points">
              <mxPoint x="-2320" y="2020" />
              <mxPoint x="-2360" y="2100" />
              <mxPoint x="-1710" y="2010" />
              <mxPoint x="-10" y="2160" />
              <mxPoint x="450" y="1320" />
              <mxPoint x="-180" y="410" />
            </Array>
          </mxGeometry>
        </mxCell>
        <mxCell id="anHl6WbOX5LBprr3oGt9-251" value="Открыть список со всеми предметами" style="rounded=0;whiteSpace=wrap;html=1;fillColor=#e1d5e7;strokeColor=#9673a6;" vertex="1" parent="1">
          <mxGeometry x="-3015" y="930" width="120" height="60" as="geometry" />
        </mxCell>
        <mxCell id="anHl6WbOX5LBprr3oGt9-252" value="" style="endArrow=none;html=1;rounded=0;entryX=0.5;entryY=1;entryDx=0;entryDy=0;exitX=0.5;exitY=0;exitDx=0;exitDy=0;" edge="1" parent="1" source="anHl6WbOX5LBprr3oGt9-251">
          <mxGeometry width="50" height="50" relative="1" as="geometry">
            <mxPoint x="-3099" y="910" as="sourcePoint" />
            <mxPoint x="-2957" y="894" as="targetPoint" />
          </mxGeometry>
        </mxCell>
        <mxCell id="anHl6WbOX5LBprr3oGt9-253" value="Предмет" style="rounded=0;whiteSpace=wrap;html=1;fillColor=#b0e3e6;strokeColor=#0e8088;" vertex="1" parent="1">
          <mxGeometry x="-3015" y="1030" width="120" height="60" as="geometry" />
        </mxCell>
        <mxCell id="anHl6WbOX5LBprr3oGt9-254" value="" style="endArrow=none;html=1;rounded=0;entryX=0.5;entryY=1;entryDx=0;entryDy=0;exitX=0.5;exitY=0;exitDx=0;exitDy=0;" edge="1" parent="1" source="anHl6WbOX5LBprr3oGt9-253" target="anHl6WbOX5LBprr3oGt9-251">
          <mxGeometry width="50" height="50" relative="1" as="geometry">
            <mxPoint x="-2979" y="1030" as="sourcePoint" />
            <mxPoint x="-2929" y="980" as="targetPoint" />
          </mxGeometry>
        </mxCell>
        <mxCell id="anHl6WbOX5LBprr3oGt9-255" value="Открыть домашнее задание по предмету(по умолчанию дз нет)" style="rounded=0;whiteSpace=wrap;html=1;fillColor=#e1d5e7;strokeColor=#9673a6;" vertex="1" parent="1">
          <mxGeometry x="-3015" y="1130" width="120" height="60" as="geometry" />
        </mxCell>
        <mxCell id="anHl6WbOX5LBprr3oGt9-256" value="" style="endArrow=none;html=1;rounded=0;entryX=0.5;entryY=1;entryDx=0;entryDy=0;exitX=0.5;exitY=0;exitDx=0;exitDy=0;" edge="1" parent="1" source="anHl6WbOX5LBprr3oGt9-255" target="anHl6WbOX5LBprr3oGt9-253">
          <mxGeometry width="50" height="50" relative="1" as="geometry">
            <mxPoint x="-3099" y="1110" as="sourcePoint" />
            <mxPoint x="-2951" y="1070" as="targetPoint" />
          </mxGeometry>
        </mxCell>
        <mxCell id="anHl6WbOX5LBprr3oGt9-257" value="Изменить изменить дз" style="rounded=0;whiteSpace=wrap;html=1;fillColor=#b0e3e6;strokeColor=#0e8088;" vertex="1" parent="1">
          <mxGeometry x="-3015" y="1250" width="120" height="60" as="geometry" />
        </mxCell>
        <mxCell id="anHl6WbOX5LBprr3oGt9-258" value="" style="endArrow=none;html=1;rounded=0;entryX=0.5;entryY=1;entryDx=0;entryDy=0;exitX=0.5;exitY=0;exitDx=0;exitDy=0;" edge="1" parent="1" source="anHl6WbOX5LBprr3oGt9-257" target="anHl6WbOX5LBprr3oGt9-255">
          <mxGeometry width="50" height="50" relative="1" as="geometry">
            <mxPoint x="-2999" y="1150" as="sourcePoint" />
            <mxPoint x="-2949" y="1100" as="targetPoint" />
          </mxGeometry>
        </mxCell>
        <mxCell id="anHl6WbOX5LBprr3oGt9-259" value="Ввод изменённого дз" style="rounded=0;whiteSpace=wrap;html=1;fillColor=#ffe6cc;strokeColor=#d79b00;" vertex="1" parent="1">
          <mxGeometry x="-3017" y="1360" width="120" height="60" as="geometry" />
        </mxCell>
        <mxCell id="anHl6WbOX5LBprr3oGt9-260" value="" style="endArrow=none;html=1;rounded=0;entryX=0.5;entryY=1;entryDx=0;entryDy=0;" edge="1" parent="1" source="anHl6WbOX5LBprr3oGt9-259">
          <mxGeometry width="50" height="50" relative="1" as="geometry">
            <mxPoint x="-2867" y="1320" as="sourcePoint" />
            <mxPoint x="-2957" y="1310" as="targetPoint" />
          </mxGeometry>
        </mxCell>
        <mxCell id="anHl6WbOX5LBprr3oGt9-261" value="отправка дз" style="rounded=0;whiteSpace=wrap;html=1;fillColor=#e1d5e7;strokeColor=#9673a6;" vertex="1" parent="1">
          <mxGeometry x="-3017" y="1470" width="120" height="60" as="geometry" />
        </mxCell>
        <mxCell id="anHl6WbOX5LBprr3oGt9-262" value="" style="endArrow=none;html=1;rounded=0;entryX=0.5;entryY=1;entryDx=0;entryDy=0;fillColor=#e1d5e7;strokeColor=#000000;" edge="1" parent="1" source="anHl6WbOX5LBprr3oGt9-261">
          <mxGeometry width="50" height="50" relative="1" as="geometry">
            <mxPoint x="-2867" y="1430" as="sourcePoint" />
            <mxPoint x="-2957" y="1420" as="targetPoint" />
          </mxGeometry>
        </mxCell>
        <mxCell id="anHl6WbOX5LBprr3oGt9-263" value="Предметы" style="rounded=0;whiteSpace=wrap;html=1;fillColor=#b0e3e6;strokeColor=#0e8088;" vertex="1" parent="1">
          <mxGeometry x="-3015" y="840" width="120" height="60" as="geometry" />
        </mxCell>
        <mxCell id="anHl6WbOX5LBprr3oGt9-265" value="" style="endArrow=none;html=1;rounded=0;" edge="1" parent="1">
          <mxGeometry width="50" height="50" relative="1" as="geometry">
            <mxPoint x="-2630" y="840" as="sourcePoint" />
            <mxPoint x="-2630" y="820" as="targetPoint" />
          </mxGeometry>
        </mxCell>
        <mxCell id="anHl6WbOX5LBprr3oGt9-266" value="Выйти из группы" style="rounded=0;whiteSpace=wrap;html=1;fillColor=#b0e3e6;strokeColor=#0e8088;" vertex="1" parent="1">
          <mxGeometry x="-2690" y="840" width="120" height="60" as="geometry" />
        </mxCell>
        <mxCell id="anHl6WbOX5LBprr3oGt9-267" value="" style="endArrow=none;html=1;rounded=0;entryX=0.5;entryY=1;entryDx=0;entryDy=0;exitX=0.5;exitY=0;exitDx=0;exitDy=0;" edge="1" parent="1" source="anHl6WbOX5LBprr3oGt9-268">
          <mxGeometry width="50" height="50" relative="1" as="geometry">
            <mxPoint x="-2630" y="920" as="sourcePoint" />
            <mxPoint x="-2630" y="900" as="targetPoint" />
          </mxGeometry>
        </mxCell>
        <mxCell id="anHl6WbOX5LBprr3oGt9-268" value="Удалить пользователя из группы" style="rounded=0;whiteSpace=wrap;html=1;fillColor=#e1d5e7;strokeColor=#9673a6;" vertex="1" parent="1">
          <mxGeometry x="-2690" y="940" width="120" height="60" as="geometry" />
        </mxCell>
        <mxCell id="anHl6WbOX5LBprr3oGt9-269" value="" style="curved=1;endArrow=classic;html=1;rounded=0;exitX=1;exitY=0.5;exitDx=0;exitDy=0;entryX=0;entryY=0.5;entryDx=0;entryDy=0;entryPerimeter=0;fillColor=#fff2cc;strokeColor=#d6b656;" edge="1" parent="1" source="anHl6WbOX5LBprr3oGt9-268" target="anHl6WbOX5LBprr3oGt9-20">
          <mxGeometry width="50" height="50" relative="1" as="geometry">
            <mxPoint x="-2330" y="790" as="sourcePoint" />
            <mxPoint y="650" as="targetPoint" />
            <Array as="points">
              <mxPoint x="-2630" y="2050" />
              <mxPoint x="-170" y="2270" />
              <mxPoint x="-160" y="1980" />
              <mxPoint x="130" y="1360" />
              <mxPoint x="-150" y="610" />
            </Array>
          </mxGeometry>
        </mxCell>
        <mxCell id="anHl6WbOX5LBprr3oGt9-270" value="" style="curved=1;endArrow=classic;html=1;rounded=0;exitX=1;exitY=0.5;exitDx=0;exitDy=0;fillColor=#f8cecc;strokeColor=#b85450;" edge="1" parent="1" source="anHl6WbOX5LBprr3oGt9-268">
          <mxGeometry width="50" height="50" relative="1" as="geometry">
            <mxPoint x="-2330" y="790" as="sourcePoint" />
            <mxPoint x="230" y="440" as="targetPoint" />
            <Array as="points">
              <mxPoint x="-2550" y="2020" />
              <mxPoint x="-2590" y="2100" />
              <mxPoint x="-1940" y="2010" />
              <mxPoint x="-240" y="2160" />
              <mxPoint x="220" y="1320" />
              <mxPoint x="-180" y="430" />
            </Array>
          </mxGeometry>
        </mxCell>
        <mxCell id="anHl6WbOX5LBprr3oGt9-271" value="" style="endArrow=none;html=1;rounded=0;" edge="1" parent="1">
          <mxGeometry width="50" height="50" relative="1" as="geometry">
            <mxPoint x="-2955.21" y="840" as="sourcePoint" />
            <mxPoint x="-2955.21" y="820" as="targetPoint" />
          </mxGeometry>
        </mxCell>
        <mxCell id="anHl6WbOX5LBprr3oGt9-272" value="" style="endArrow=none;html=1;rounded=0;" edge="1" parent="1">
          <mxGeometry width="50" height="50" relative="1" as="geometry">
            <mxPoint x="-2960" y="820" as="sourcePoint" />
            <mxPoint x="-2630" y="820" as="targetPoint" />
          </mxGeometry>
        </mxCell>
        <mxCell id="anHl6WbOX5LBprr3oGt9-273" value="" style="endArrow=none;html=1;rounded=0;entryX=0.5;entryY=1;entryDx=0;entryDy=0;" edge="1" parent="1" target="anHl6WbOX5LBprr3oGt9-242">
          <mxGeometry width="50" height="50" relative="1" as="geometry">
            <mxPoint x="-2790" y="820" as="sourcePoint" />
            <mxPoint x="-2680" y="800" as="targetPoint" />
          </mxGeometry>
        </mxCell>
        <mxCell id="anHl6WbOX5LBprr3oGt9-274" value="" style="curved=1;endArrow=classic;html=1;rounded=0;exitX=1;exitY=0.5;exitDx=0;exitDy=0;fillColor=#f5f5f5;strokeColor=#666666;" edge="1" parent="1" source="anHl6WbOX5LBprr3oGt9-261">
          <mxGeometry width="50" height="50" relative="1" as="geometry">
            <mxPoint x="-2450" y="1450" as="sourcePoint" />
            <mxPoint x="230" y="880" as="targetPoint" />
            <Array as="points">
              <mxPoint x="-2290" y="2460" />
              <mxPoint x="-620" y="2280" />
            </Array>
          </mxGeometry>
        </mxCell>
      </root>
    </mxGraphModel>
  </diagram>
</mxfile>
